<svg width="81" height="90" viewBox="0 0 81 90" fill="none" xmlns="http://www.w3.org/2000/svg">
<path d="M73.7565 33.5221C73.7565 51.767 58.9686 66.5656 40.7237 66.5656C22.4789 66.5656 7.69092 51.767 7.69092 33.5221C7.69092 15.2879 22.4789 0.500006 40.7237 0.500006C58.9793 0.489336 73.7565 15.2773 73.7565 33.5221Z" fill="white"/>
<path d="M53.5483 12.332H24.2178V54.7007H40.3394V54.6367V52.1293V41.8439V41.0437V30.1501H39.1978V36.0184H36.5517H35.3567V32.188V24.6873H41.5344L43.3802 27.7495L45.2581 24.7513H51.7344V36.0824H47.9574V30.0968H46.4637V44.2445C47.3599 44.3832 48.2989 44.4793 49.2378 44.4793C58.3069 44.4793 65.6688 37.128 65.6688 28.0482C65.6582 20.9957 60.8142 14.0071 53.5483 12.332Z" fill="#FD7251"/>
<path d="M39.198 36.0292H35.3569V24.6875H41.5346L43.3804 27.7497L45.2582 24.7515H51.7346V36.0825H47.9576V30.0969H46.4532V54.6368H40.3289V30.1503H39.198V36.0292Z" fill="white"/>
<path d="M46.5812 20.6101C46.5812 22.3706 45.1515 23.7896 43.4017 23.7896C41.6412 23.7896 40.2222 22.3706 40.2222 20.6101C40.2222 18.8496 41.6412 17.4199 43.4017 17.4199C45.1515 17.4199 46.5812 18.8496 46.5812 20.6101Z" fill="white"/>
<path d="M13.1214 89.3871L3.11335 75.09V89.3871H0.830078V71.2383H3.14536L13.2814 85.6955V71.2383H15.522V89.3871H13.1214Z" fill="white"/>
<path d="M44.7136 89.4067L42.4303 84.0185H34.3002L32.0703 89.4067H29.5522L37.0956 71.2578H39.4536L47.285 89.4067H44.7136ZM38.2906 74.544L35.2604 81.7033L41.4167 81.7139L38.2906 74.544Z" fill="white"/>
<path d="M29.5421 81.4609H20.1849V89.4097H17.8696V73.6508C17.8696 72.9679 18.1257 72.4024 18.5311 71.9757C18.9579 71.5169 19.5768 71.2715 20.1529 71.2715H29.5741V73.5761H20.7931C20.4303 73.5761 20.1849 73.9069 20.1849 74.2056V79.1029H29.5421V81.4609Z" fill="white"/>
<path d="M74.6311 73.5214V89.419H72.3265V73.5214H65.9888V71.2168H80.8301V73.5214H74.6311Z" fill="white"/>
<path d="M63.5564 76.4782C63.5564 75.2619 63.1723 73.8322 62.3828 72.8932C61.4439 71.7729 60.0142 71.2715 58.6164 71.2715H51.8306C51.2545 71.2715 50.6357 71.5275 50.2089 71.9757C49.8034 72.4131 49.5474 72.9679 49.5474 73.6508V89.4097H51.8627V81.6743H58.147C59.8968 81.6743 61.2412 81.2475 62.4148 79.9778C63.2257 79.0922 63.5884 77.7692 63.5564 76.4782ZM57.8162 79.3696H51.8627V74.2056C51.8627 73.8962 52.1187 73.5761 52.4815 73.5761H57.8376C58.6591 73.5761 59.4807 73.7788 60.1209 74.2696C60.7397 74.8031 61.1345 75.582 61.1345 76.4675C61.1345 77.5558 60.5156 78.5161 59.6194 78.9962C59.598 79.0069 59.5874 79.0175 59.5767 79.0282C59.5447 79.0389 59.5234 79.0602 59.4807 79.0709C59.1286 79.2203 58.7552 79.3056 58.3604 79.3483C58.3284 79.3483 58.2857 79.359 58.243 79.359L58.2644 79.3696C58.1257 79.359 57.9656 79.3696 57.8162 79.3696Z" fill="white"/>
</svg>
