<svg width="369" height="57" viewBox="0 0 369 57" fill="none" xmlns="http://www.w3.org/2000/svg">
<path d="M59.8702 55.2105C59.4102 55.4405 58.8002 55.5105 58.2902 55.4305C57.7502 55.3605 57.2902 55.1406 56.9302 54.7206C56.5002 54.2106 56.3102 53.6005 56.3002 52.9105C56.2802 51.9405 56.6002 50.9906 57.5102 50.5006C58.1402 50.1606 59.0402 50.1105 59.7402 50.4005C60.3302 50.6505 60.7702 51.2005 61.0002 51.7905H60.2602C60.0302 51.3505 59.7902 51.0305 59.3202 50.8305C58.9402 50.6805 58.4802 50.6405 58.0902 50.8005C57.2202 51.1405 56.9302 52.0106 56.9502 52.8706C56.9802 53.6106 57.1902 54.3106 57.8502 54.7206C58.3202 55.0106 59.0302 55.0306 59.5402 54.7406C59.9102 54.5306 60.2102 54.1005 60.3402 53.7005H61.0802C60.8902 54.3205 60.4502 54.9305 59.8702 55.2105Z" fill="white"/>
<path d="M63.9602 55.3402C63.5302 55.5202 62.9402 55.5002 62.5102 55.3102C62.0802 55.1202 61.7502 54.7902 61.6202 54.3302C61.4602 53.8202 61.4602 53.0903 61.6802 52.6003C61.8702 52.1503 62.2402 51.8302 62.7102 51.7002C63.1702 51.5602 63.7202 51.6002 64.1202 51.8302C64.5402 52.0702 64.7502 52.3602 64.8702 52.8102C65.0102 53.2902 65.0102 53.8302 64.8902 54.3002C64.7802 54.7602 64.3902 55.1602 63.9602 55.3402ZM63.1702 52.1203C62.7802 52.1403 62.3802 52.4002 62.2602 52.7902C62.1202 53.2302 62.1402 53.7603 62.2502 54.2303C62.3302 54.5903 62.6802 54.9002 63.0402 54.9502C63.4602 55.0102 63.9602 54.8803 64.1602 54.4803C64.4202 53.9603 64.4002 53.2102 64.1902 52.6902C64.0302 52.2902 63.6002 52.1003 63.1702 52.1203Z" fill="white"/>
<path d="M67.02 52.2401C66.83 52.2101 66.65 52.3 66.51 52.43C66.31 52.64 66.23 52.9201 66.17 53.1901V55.38H65.54V51.67H66.17V52.13C66.29 51.94 66.58 51.68 66.82 51.64C67.09 51.59 67.39 51.6901 67.62 51.8301V52.5701C67.49 52.4401 67.22 52.2701 67.02 52.2401Z" fill="white"/>
<path d="M70.6802 55.2497C70.4002 55.4197 70.0802 55.4897 69.7502 55.4497C69.3902 55.3997 69.0502 55.2196 68.8202 54.9096V56.8297H68.1802V51.6896H68.8202V52.2397C69.0002 51.9297 69.2902 51.7196 69.6402 51.6496C69.9902 51.5796 70.3702 51.6497 70.6702 51.8397C70.9902 52.0297 71.1602 52.2996 71.2902 52.6396C71.5002 53.2196 71.5302 53.8897 71.3002 54.4797C71.1802 54.7997 70.9902 55.0597 70.6802 55.2497ZM70.5602 52.5797C70.4302 52.3497 70.1702 52.1696 69.9102 52.1296C69.6002 52.0996 69.3102 52.2197 69.1402 52.4697C68.7502 53.0097 68.7602 53.8496 69.0502 54.4396C69.2002 54.7496 69.4902 54.9497 69.8502 54.9497C70.1702 54.9597 70.4602 54.7197 70.5902 54.4497C70.8702 53.8997 70.8702 53.1197 70.5602 52.5797Z" fill="white"/>
<path d="M74.4301 55.3402C74.0001 55.5202 73.41 55.5002 72.98 55.3102C72.55 55.1202 72.23 54.7902 72.09 54.3302C71.93 53.8202 71.94 53.0903 72.16 52.6003C72.35 52.1503 72.72 51.8302 73.19 51.7002C73.66 51.5602 74.2 51.6002 74.6 51.8302C75.03 52.0702 75.23 52.3602 75.36 52.8102C75.5 53.2902 75.5 53.8302 75.37 54.3002C75.25 54.7602 74.8601 55.1602 74.4301 55.3402ZM73.64 52.1203C73.25 52.1403 72.85 52.4002 72.73 52.7902C72.59 53.2302 72.61 53.7603 72.72 54.2303C72.8 54.5903 73.14 54.9002 73.51 54.9502C73.93 55.0102 74.43 54.8803 74.63 54.4803C74.89 53.9603 74.87 53.2102 74.66 52.6902C74.5 52.2902 74.07 52.1003 73.64 52.1203Z" fill="white"/>
<path d="M77.48 52.2401C77.29 52.2101 77.11 52.3 76.97 52.43C76.77 52.64 76.68 52.9201 76.63 53.1901V55.38H76V51.67H76.63V52.13C76.75 51.94 77.04 51.68 77.28 51.64C77.55 51.59 77.85 51.6901 78.08 51.8301V52.5701C77.96 52.4401 77.69 52.2701 77.48 52.2401Z" fill="white"/>
<path d="M81.2602 55.4005C81.2002 55.2505 81.1402 55.0605 81.1202 54.9105C80.8002 55.2005 80.3902 55.4105 79.9602 55.4605C79.6502 55.4905 79.3102 55.4605 79.0402 55.3205C78.8102 55.1905 78.6402 55.0106 78.5602 54.7506C78.4702 54.4806 78.4802 54.1805 78.5802 53.9205C78.6902 53.6305 78.9202 53.4405 79.2302 53.3305C79.4902 53.2405 79.8502 53.2005 80.1502 53.1705C80.4902 53.1505 80.8702 53.0205 81.0602 52.8405C81.0702 52.7005 81.0602 52.4805 80.9302 52.3305C80.8002 52.1905 80.6002 52.1205 80.4002 52.1005C80.1502 52.0705 79.8302 52.1105 79.6002 52.2105C79.3602 52.3105 79.2202 52.5106 79.1602 52.7506H78.4902C78.5402 52.3606 78.8702 51.9905 79.2402 51.8105C79.5602 51.6605 80.0302 51.5905 80.3802 51.6005C80.7502 51.6205 81.1502 51.7206 81.4102 52.0006C81.6202 52.2306 81.7102 52.5305 81.7002 52.8905C81.6902 53.3505 81.6902 53.9805 81.7002 54.3105C81.7102 54.6705 81.8202 55.1305 81.9602 55.4005H81.2602ZM81.0502 53.4305C80.7902 53.5705 80.5002 53.6705 80.2402 53.6905C79.9902 53.7105 79.7502 53.7405 79.5602 53.8005C79.3902 53.8605 79.2802 53.9405 79.2102 54.1005C79.1402 54.2505 79.1402 54.4305 79.1902 54.5805C79.2502 54.7505 79.3902 54.8505 79.5502 54.9105C79.6802 54.9505 79.8602 54.9505 80.0002 54.9205C80.4402 54.8405 80.8102 54.6106 81.0502 54.2306V53.4305Z" fill="white"/>
<path d="M84.0201 55.389H83.4401C83.2401 55.389 83.0901 55.3391 82.9901 55.2491C82.8901 55.1491 82.8301 54.9891 82.8301 54.7891V52.1791H82.3101V51.6891H82.8301V50.2891H83.4701V51.6891H84.2001V52.1791H83.4701V54.7091C83.4701 54.8191 83.5801 54.899 83.6801 54.899H84.3101L84.0201 55.389Z" fill="white"/>
<path d="M85.02 50.2793H85.68V50.9393H85.02V50.2793ZM85.02 51.6793H85.68V55.3893H85.02V51.6793Z" fill="white"/>
<path d="M89.0301 55.3402C88.6001 55.5202 88.0201 55.5002 87.5901 55.3102C87.1601 55.1202 86.8301 54.7902 86.6901 54.3302C86.5301 53.8202 86.5401 53.0903 86.7501 52.6003C86.9401 52.1503 87.3101 51.8302 87.7801 51.7002C88.2401 51.5602 88.7901 51.6002 89.1901 51.8302C89.6201 52.0702 89.8201 52.3602 89.9501 52.8102C90.0901 53.2902 90.0901 53.8302 89.9701 54.3002C89.8601 54.7602 89.4701 55.1602 89.0301 55.3402ZM88.2501 52.1203C87.8601 52.1403 87.4601 52.4002 87.3301 52.7902C87.2001 53.2302 87.2101 53.7603 87.3201 54.2303C87.4001 54.5903 87.7501 54.9002 88.1101 54.9502C88.5301 55.0102 89.0201 54.8803 89.2301 54.4803C89.4901 53.9603 89.4701 53.2102 89.2601 52.6902C89.1001 52.2902 88.6801 52.1003 88.2501 52.1203Z" fill="white"/>
<path d="M93.0599 55.4V52.9901C93.0599 52.6501 92.9599 52.29 92.6299 52.16C92.3399 52.05 91.9999 52.1 91.7399 52.26C91.4199 52.45 91.3099 52.7501 91.3099 53.1101V55.4H90.6699V51.68H91.2299V52.1001C91.4299 51.8601 91.6699 51.71 92.0299 51.64C92.4499 51.56 92.9399 51.65 93.2399 51.88C93.5899 52.14 93.7099 52.45 93.7099 52.88V55.39H93.0599V55.4Z" fill="white"/>
<path d="M100.45 55.4008L99.8102 53.8807H97.5202L96.8902 55.4008H96.1802L98.3102 50.3008H98.9702L101.17 55.4008H100.45ZM98.6502 51.2108L97.7302 53.3807H99.5902L98.6502 51.2108Z" fill="white"/>
<path d="M104.49 56.3797C104.22 56.6797 103.81 56.8298 103.41 56.8598C103.07 56.8898 102.56 56.8397 102.26 56.6697C101.93 56.4797 101.7 56.0897 101.69 55.7097H102.32C102.33 55.9897 102.5 56.2397 102.73 56.2897C103 56.3597 103.26 56.3797 103.48 56.3497C103.72 56.3097 103.97 56.1797 104.1 55.9097C104.25 55.6197 104.24 55.2797 104.24 54.9197C104.02 55.1497 103.74 55.2998 103.44 55.3698C103.04 55.4598 102.63 55.3797 102.29 55.1397C102.01 54.9397 101.8 54.6397 101.71 54.3497C101.57 53.9197 101.54 53.3997 101.64 52.9297C101.72 52.5597 101.9 52.2097 102.19 51.9597C102.46 51.7197 102.85 51.6098 103.21 51.6198C103.62 51.6498 103.95 51.8397 104.23 52.1397V51.6797H104.85V55.2697C104.85 55.6797 104.74 56.0897 104.49 56.3797ZM104 52.5497C103.8 52.2797 103.51 52.1297 103.19 52.1297C102.85 52.1397 102.57 52.3098 102.4 52.6198C102.18 53.0198 102.17 53.8797 102.35 54.2797C102.5 54.6297 102.79 54.8697 103.17 54.8797C103.56 54.8997 103.89 54.6897 104.07 54.3497C104.31 53.8997 104.31 52.9697 104 52.5497Z" fill="white"/>
<path d="M108.34 56.3797C108.07 56.6797 107.66 56.8298 107.26 56.8598C106.92 56.8898 106.41 56.8397 106.11 56.6697C105.77 56.4797 105.55 56.0897 105.54 55.7097H106.17C106.18 55.9897 106.35 56.2397 106.58 56.2897C106.85 56.3597 107.11 56.3797 107.33 56.3497C107.58 56.3097 107.82 56.1797 107.95 55.9097C108.1 55.6197 108.09 55.2797 108.09 54.9197C107.87 55.1497 107.6 55.2998 107.3 55.3698C106.9 55.4598 106.48 55.3797 106.15 55.1397C105.88 54.9397 105.66 54.6397 105.57 54.3497C105.43 53.9197 105.4 53.3997 105.5 52.9297C105.58 52.5597 105.76 52.2097 106.06 51.9597C106.33 51.7197 106.71 51.6098 107.07 51.6198C107.48 51.6498 107.81 51.8397 108.09 52.1397V51.6797H108.71V55.2697C108.7 55.6797 108.6 56.0897 108.34 56.3797ZM107.85 52.5497C107.65 52.2797 107.36 52.1297 107.05 52.1297C106.7 52.1397 106.43 52.3098 106.25 52.6198C106.03 53.0198 106.02 53.8797 106.2 54.2797C106.35 54.6297 106.63 54.8697 107.02 54.8797C107.42 54.8997 107.75 54.6897 107.92 54.3497C108.16 53.8997 108.17 52.9697 107.85 52.5497Z" fill="white"/>
<path d="M110.79 52.2401C110.6 52.2101 110.42 52.3 110.28 52.43C110.08 52.64 109.99 52.9201 109.95 53.1901V55.38H109.32V51.67H109.95V52.13C110.07 51.94 110.36 51.68 110.6 51.64C110.87 51.59 111.17 51.6901 111.4 51.8301V52.5701C111.27 52.4401 111 52.2701 110.79 52.2401Z" fill="white"/>
<path d="M114.56 55.26C114.27 55.46 113.75 55.5101 113.34 55.4701C112.88 55.4301 112.48 55.2401 112.2 54.8501C111.94 54.4801 111.8 53.9901 111.81 53.5001C111.81 53.1001 111.9 52.7001 112.09 52.3701C112.4 51.8301 112.95 51.6101 113.53 51.6001C114.06 51.5901 114.46 51.7401 114.77 52.1001C115.05 52.4101 115.18 52.89 115.15 53.3C115.14 53.55 115 53.66 114.76 53.66H112.46C112.51 54.1 112.64 54.52 112.97 54.78C113.17 54.95 113.42 54.9901 113.68 54.9801C113.88 54.9601 114.08 54.9001 114.23 54.7501C114.39 54.6001 114.47 54.3801 114.51 54.2001H115.22C115.15 54.5601 114.92 55.02 114.56 55.26ZM114.17 52.27C113.88 52.07 113.46 52.08 113.15 52.19C112.73 52.32 112.52 52.77 112.5 53.17H114.41C114.5 53.17 114.55 53.09 114.55 53.01C114.55 52.75 114.4 52.42 114.17 52.27Z" fill="white"/>
<path d="M118.68 56.3797C118.41 56.6797 118 56.8298 117.6 56.8598C117.26 56.8898 116.75 56.8397 116.45 56.6697C116.11 56.4797 115.89 56.0897 115.88 55.7097H116.51C116.52 55.9897 116.7 56.2397 116.92 56.2897C117.19 56.3597 117.45 56.3797 117.67 56.3497C117.91 56.3097 118.16 56.1797 118.29 55.9097C118.44 55.6197 118.43 55.2797 118.43 54.9197C118.21 55.1497 117.94 55.2998 117.63 55.3698C117.23 55.4598 116.81 55.3797 116.48 55.1397C116.21 54.9397 115.99 54.6397 115.9 54.3497C115.76 53.9197 115.73 53.3997 115.83 52.9297C115.91 52.5597 116.1 52.2097 116.39 51.9597C116.66 51.7197 117.04 51.6098 117.41 51.6198C117.82 51.6498 118.15 51.8397 118.44 52.1397V51.6797H119.06V55.2697C119.04 55.6797 118.93 56.0897 118.68 56.3797ZM118.19 52.5497C117.99 52.2797 117.71 52.1297 117.39 52.1297C117.04 52.1397 116.77 52.3098 116.6 52.6198C116.38 53.0198 116.37 53.8797 116.55 54.2797C116.7 54.6297 116.99 54.8697 117.37 54.8797C117.77 54.8997 118.09 54.6897 118.27 54.3497C118.5 53.8997 118.5 52.9697 118.19 52.5497Z" fill="white"/>
<path d="M122.41 55.4002C122.34 55.2502 122.29 55.0602 122.27 54.9102C121.95 55.2002 121.55 55.4103 121.11 55.4703C120.8 55.5003 120.46 55.4703 120.2 55.3303C119.96 55.1903 119.79 55.0102 119.71 54.7602C119.63 54.4902 119.63 54.1903 119.72 53.9303C119.83 53.6403 120.06 53.4503 120.37 53.3403C120.63 53.2503 120.99 53.2103 121.3 53.1803C121.63 53.1503 122.01 53.0303 122.21 52.8503C122.22 52.7103 122.21 52.4903 122.07 52.3403C121.94 52.2003 121.74 52.1303 121.55 52.1103C121.3 52.0803 120.99 52.1203 120.75 52.2203C120.51 52.3203 120.37 52.5202 120.31 52.7602H119.63C119.68 52.3702 120.01 52.0103 120.38 51.8203C120.7 51.6703 121.17 51.6003 121.52 51.6103C121.89 51.6303 122.29 51.7302 122.56 52.0102C122.77 52.2402 122.85 52.5402 122.85 52.9002C122.84 53.3602 122.84 53.9903 122.85 54.3203C122.86 54.6803 122.97 55.1402 123.12 55.4102H122.41V55.4002ZM122.19 53.4303C121.93 53.5703 121.64 53.6703 121.38 53.6903C121.13 53.7003 120.89 53.7403 120.7 53.8003C120.53 53.8603 120.42 53.9503 120.35 54.1003C120.28 54.2403 120.27 54.4303 120.33 54.5803C120.39 54.7503 120.52 54.8502 120.69 54.9102C120.83 54.9502 121 54.9502 121.15 54.9202C121.59 54.8502 121.96 54.6103 122.2 54.2403V53.4303H122.19Z" fill="white"/>
<path d="M125.17 55.389H124.59C124.39 55.389 124.24 55.3391 124.14 55.2391C124.03 55.1391 123.98 54.9791 123.98 54.7791V52.1691H123.46V51.6891H123.97V50.2891H124.61V51.6891H125.34V52.1791H124.61V54.7091C124.61 54.8191 124.73 54.899 124.82 54.899H125.45L125.17 55.389Z" fill="white"/>
<path d="M128.52 55.26C128.23 55.46 127.71 55.5101 127.3 55.4701C126.84 55.4201 126.43 55.2401 126.16 54.8501C125.9 54.4801 125.76 53.9901 125.77 53.5001C125.77 53.1001 125.86 52.7001 126.06 52.3701C126.36 51.8301 126.92 51.6101 127.5 51.6001C128.03 51.5901 128.43 51.7401 128.74 52.1001C129.01 52.4101 129.15 52.89 129.13 53.3C129.11 53.54 128.97 53.66 128.74 53.66H126.44C126.48 54.1 126.62 54.52 126.95 54.78C127.15 54.95 127.4 54.9901 127.66 54.9801C127.87 54.9701 128.06 54.9001 128.21 54.7501C128.36 54.6001 128.44 54.3801 128.49 54.2001H129.2C129.11 54.5601 128.88 55.02 128.52 55.26ZM128.14 52.27C127.85 52.07 127.43 52.09 127.11 52.19C126.69 52.32 126.48 52.77 126.47 53.17H128.37C128.47 53.17 128.51 53.09 128.51 53.01C128.52 52.75 128.36 52.42 128.14 52.27Z" fill="white"/>
<path d="M135.26 55.3893L132.44 51.3694V55.3893H131.8V50.2793H132.45L135.3 54.3594V50.2793H135.93V55.3893H135.26Z" fill="white"/>
<path d="M139.31 55.4002C139.24 55.2502 139.19 55.0602 139.17 54.9102C138.85 55.2002 138.44 55.4103 138.01 55.4703C137.7 55.5003 137.36 55.4703 137.09 55.3303C136.85 55.1903 136.69 55.0102 136.61 54.7602C136.52 54.4902 136.53 54.1903 136.62 53.9303C136.74 53.6403 136.97 53.4503 137.27 53.3403C137.53 53.2503 137.89 53.2103 138.19 53.1803C138.53 53.1503 138.91 53.0303 139.11 52.8503C139.12 52.7103 139.11 52.4903 138.97 52.3403C138.84 52.2003 138.64 52.1303 138.45 52.1103C138.2 52.0803 137.88 52.1203 137.65 52.2203C137.41 52.3203 137.27 52.5202 137.21 52.7602H136.53C136.58 52.3702 136.91 52.0103 137.28 51.8203C137.59 51.6703 138.07 51.6003 138.42 51.6103C138.79 51.6303 139.19 51.7302 139.46 52.0102C139.67 52.2402 139.75 52.5402 139.75 52.9002C139.74 53.3602 139.74 53.9903 139.75 54.3203C139.76 54.6803 139.87 55.1402 140.01 55.4102H139.31V55.4002ZM139.09 53.4303C138.83 53.5703 138.54 53.6703 138.28 53.6903C138.03 53.7003 137.79 53.7403 137.6 53.8003C137.43 53.8603 137.32 53.9503 137.25 54.1003C137.19 54.2403 137.18 54.4303 137.23 54.5803C137.29 54.7503 137.42 54.8502 137.59 54.9102C137.73 54.9502 137.9 54.9502 138.04 54.9202C138.49 54.8502 138.85 54.6103 139.1 54.2403V53.4303H139.09Z" fill="white"/>
<path d="M142.06 55.389H141.48C141.28 55.389 141.13 55.3391 141.03 55.2391C140.92 55.1391 140.86 54.9791 140.86 54.7791V52.1691H140.34V51.6891H140.86V50.2891H141.5V51.6891H142.23V52.1791H141.5V54.7091C141.5 54.8191 141.61 54.899 141.71 54.899H142.35L142.06 55.389Z" fill="white"/>
<path d="M143.06 50.2793H143.72V50.9393H143.06V50.2793ZM143.06 51.6793H143.72V55.3893H143.06V51.6793Z" fill="white"/>
<path d="M147.08 55.34C146.65 55.52 146.06 55.5 145.63 55.32C145.2 55.13 144.87 54.8 144.74 54.34C144.58 53.83 144.59 53.1 144.8 52.61C144.99 52.16 145.36 51.84 145.83 51.71C146.3 51.57 146.84 51.61 147.24 51.84C147.66 52.08 147.86 52.37 148 52.82C148.13 53.3 148.13 53.84 148.02 54.31C147.9 54.76 147.51 55.16 147.08 55.34ZM146.3 52.12C145.91 52.14 145.5 52.3999 145.38 52.7899C145.25 53.2299 145.26 53.76 145.37 54.23C145.45 54.59 145.8 54.9 146.16 54.95C146.57 55.01 147.08 54.88 147.28 54.48C147.54 53.96 147.52 53.21 147.31 52.69C147.15 52.29 146.72 52.1 146.3 52.12Z" fill="white"/>
<path d="M151.1 55.3997V52.9898C151.1 52.6498 151 52.2897 150.67 52.1597C150.38 52.0497 150.04 52.0997 149.79 52.2597C149.47 52.4497 149.36 52.7498 149.36 53.1098V55.3997H148.71V51.6898H149.27V52.1098C149.47 51.8698 149.7 51.7197 150.07 51.6497C150.49 51.5697 150.98 51.6597 151.28 51.8897C151.63 52.1497 151.75 52.4597 151.75 52.8897V55.3997H151.1V55.3997Z" fill="white"/>
<path d="M155.13 55.4002C155.06 55.2502 155.01 55.0602 154.98 54.9102C154.66 55.2002 154.26 55.4103 153.82 55.4703C153.51 55.5003 153.17 55.4703 152.91 55.3303C152.67 55.1903 152.5 55.0102 152.42 54.7602C152.33 54.4902 152.34 54.1903 152.43 53.9303C152.54 53.6403 152.77 53.4503 153.08 53.3403C153.34 53.2503 153.7 53.2103 154 53.1803C154.34 53.1503 154.71 53.0303 154.92 52.8503C154.93 52.7103 154.92 52.4903 154.78 52.3403C154.65 52.2003 154.45 52.1303 154.25 52.1103C154 52.0803 153.68 52.1203 153.45 52.2203C153.21 52.3203 153.07 52.5202 153 52.7602H152.33C152.38 52.3702 152.71 52.0103 153.08 51.8203C153.4 51.6703 153.87 51.6003 154.22 51.6103C154.59 51.6303 154.99 51.7302 155.26 52.0102C155.48 52.2402 155.55 52.5402 155.55 52.9002C155.54 53.3602 155.54 53.9903 155.55 54.3203C155.56 54.6803 155.67 55.1402 155.81 55.4102H155.13V55.4002ZM154.92 53.4303C154.66 53.5703 154.37 53.6703 154.1 53.6903C153.85 53.7003 153.6 53.7403 153.42 53.8003C153.24 53.8603 153.14 53.9503 153.07 54.1003C153 54.2403 153 54.4303 153.04 54.5803C153.1 54.7503 153.24 54.8502 153.4 54.9102C153.54 54.9502 153.71 54.9502 153.86 54.9202C154.3 54.8502 154.67 54.6103 154.91 54.2403V53.4303H154.92Z" fill="white"/>
<path d="M157.21 50.2793H156.53V55.3893H157.21V50.2793Z" fill="white"/>
<path d="M160.85 50.7891C160.74 50.7891 160.63 50.899 160.63 51.009V52.4991H163.28V52.9991H160.63V55.399H160V50.8391C160 50.6891 160.06 50.5491 160.16 50.4491C160.27 50.3491 160.41 50.2891 160.59 50.2891H163.69V50.7891H160.85Z" fill="white"/>
<path d="M166.96 55.26C166.67 55.46 166.15 55.5101 165.74 55.4701C165.28 55.4201 164.87 55.2401 164.61 54.8501C164.34 54.4801 164.21 53.9901 164.21 53.5001C164.21 53.1001 164.31 52.7001 164.5 52.3701C164.8 51.8301 165.36 51.6101 165.94 51.6001C166.47 51.5901 166.87 51.7401 167.18 52.1001C167.45 52.4101 167.59 52.89 167.57 53.3C167.56 53.54 167.41 53.66 167.18 53.66H164.88C164.92 54.1 165.06 54.52 165.39 54.78C165.59 54.95 165.84 54.9901 166.1 54.9801C166.31 54.9701 166.5 54.9001 166.65 54.7501C166.8 54.6001 166.89 54.3801 166.93 54.2001H167.64C167.55 54.5601 167.32 55.02 166.96 55.26ZM166.58 52.27C166.29 52.07 165.87 52.09 165.56 52.19C165.13 52.32 164.93 52.77 164.92 53.17H166.83C166.92 53.17 166.97 53.09 166.97 53.01C166.95 52.75 166.79 52.42 166.58 52.27Z" fill="white"/>
<path d="M170.77 55.399V54.9691C170.5 55.2491 170.29 55.4191 169.89 55.4691C169.58 55.4991 169.26 55.4291 169.01 55.2991C168.7 55.1391 168.5 54.8791 168.38 54.6091C168.13 54.0291 168.11 53.1491 168.36 52.5791C168.51 52.2191 168.75 51.939 169.1 51.759C169.39 51.609 169.73 51.569 170.06 51.639C170.38 51.719 170.64 51.949 170.78 52.129V50.2891H171.43V55.399H170.77ZM169.76 52.1091C169.34 52.1091 169.08 52.3991 168.94 52.7491C168.74 53.2691 168.8 54.0191 168.99 54.4391C169.12 54.7391 169.44 54.9591 169.73 54.9591C170.06 54.9491 170.35 54.8291 170.53 54.5691C170.9 54.0391 170.81 53.2491 170.59 52.6991C170.47 52.3691 170.11 52.1091 169.76 52.1091Z" fill="white"/>
<path d="M174.84 55.26C174.54 55.46 174.03 55.5101 173.62 55.4701C173.16 55.4201 172.75 55.2401 172.48 54.8501C172.22 54.4801 172.08 53.9901 172.09 53.5001C172.09 53.1001 172.19 52.7001 172.38 52.3701C172.69 51.8301 173.24 51.6101 173.82 51.6001C174.35 51.5901 174.75 51.7401 175.06 52.1001C175.33 52.4101 175.47 52.89 175.45 53.3C175.44 53.54 175.29 53.66 175.06 53.66H172.76C172.8 54.1 172.94 54.52 173.27 54.78C173.47 54.95 173.72 54.9901 173.98 54.9801C174.19 54.9701 174.38 54.9001 174.53 54.7501C174.68 54.6001 174.77 54.3801 174.81 54.2001H175.52C175.42 54.5601 175.2 55.02 174.84 55.26ZM174.45 52.27C174.16 52.07 173.74 52.09 173.42 52.19C173 52.32 172.79 52.77 172.78 53.17H174.69C174.79 53.17 174.83 53.09 174.83 53.01C174.83 52.75 174.67 52.42 174.45 52.27Z" fill="white"/>
<path d="M177.56 52.2401C177.37 52.2101 177.19 52.3 177.05 52.43C176.85 52.64 176.76 52.9201 176.71 53.1901V55.38H176.08V51.67H176.71V52.13C176.83 51.94 177.12 51.68 177.36 51.64C177.63 51.59 177.93 51.6901 178.16 51.8301V52.5701C178.03 52.4501 177.77 52.2701 177.56 52.2401Z" fill="white"/>
<path d="M181.34 55.4002C181.28 55.2502 181.22 55.0602 181.2 54.9102C180.88 55.2002 180.48 55.4103 180.05 55.4703C179.74 55.5003 179.39 55.4703 179.13 55.3303C178.89 55.1903 178.72 55.0102 178.65 54.7602C178.56 54.4902 178.56 54.1903 178.66 53.9303C178.78 53.6403 179 53.4503 179.31 53.3403C179.57 53.2503 179.94 53.2103 180.24 53.1803C180.58 53.1503 180.95 53.0303 181.16 52.8503C181.17 52.7103 181.16 52.4903 181.02 52.3403C180.89 52.2003 180.69 52.1303 180.5 52.1103C180.25 52.0803 179.93 52.1203 179.7 52.2203C179.46 52.3203 179.32 52.5202 179.26 52.7602H178.59C178.64 52.3702 178.97 52.0103 179.34 51.8203C179.65 51.6703 180.13 51.6003 180.48 51.6103C180.85 51.6303 181.25 51.7302 181.52 52.0102C181.73 52.2402 181.82 52.5402 181.81 52.9002C181.8 53.3602 181.8 53.9903 181.81 54.3203C181.82 54.6803 181.93 55.1402 182.07 55.4102H181.34V55.4002ZM181.12 53.4303C180.86 53.5703 180.57 53.6703 180.31 53.6903C180.06 53.7003 179.81 53.7403 179.63 53.8003C179.46 53.8603 179.35 53.9503 179.28 54.1003C179.21 54.2403 179.21 54.4303 179.26 54.5803C179.32 54.7503 179.45 54.8502 179.62 54.9102C179.76 54.9502 179.93 54.9502 180.08 54.9202C180.52 54.8502 180.89 54.6103 181.13 54.2403V53.4303H181.12Z" fill="white"/>
<path d="M184.1 55.389H183.52C183.32 55.389 183.17 55.3391 183.07 55.2391C182.97 55.1391 182.9 54.9791 182.9 54.7791V52.1691H182.38V51.6891H182.9V50.2891H183.54V51.6891H184.27V52.1791H183.54V54.7091C183.54 54.8191 183.65 54.899 183.74 54.899H184.38L184.1 55.389Z" fill="white"/>
<path d="M185.09 50.2793H185.75V50.9393H185.09V50.2793ZM185.09 51.6793H185.75V55.3893H185.09V51.6793Z" fill="white"/>
<path d="M189.11 55.34C188.68 55.52 188.1 55.5 187.67 55.32C187.24 55.13 186.91 54.8 186.77 54.34C186.61 53.83 186.62 53.1 186.84 52.61C187.03 52.16 187.4 51.84 187.87 51.71C188.34 51.57 188.88 51.61 189.28 51.84C189.71 52.08 189.91 52.37 190.04 52.82C190.18 53.3 190.18 53.84 190.06 54.31C189.93 54.76 189.55 55.16 189.11 55.34ZM188.33 52.12C187.94 52.14 187.54 52.3999 187.42 52.7899C187.28 53.2299 187.3 53.76 187.4 54.23C187.48 54.59 187.83 54.9 188.2 54.95C188.62 55.01 189.12 54.88 189.32 54.48C189.58 53.96 189.56 53.21 189.35 52.69C189.18 52.29 188.75 52.1 188.33 52.12Z" fill="white"/>
<path d="M193.13 55.3997V52.9898C193.13 52.6498 193.03 52.2897 192.7 52.1597C192.41 52.0497 192.07 52.0997 191.81 52.2597C191.49 52.4497 191.38 52.7498 191.38 53.1098V55.3997H190.74V51.6898H191.29V52.1098C191.49 51.8698 191.73 51.7197 192.09 51.6497C192.51 51.5697 193 51.6597 193.3 51.8897C193.65 52.1497 193.77 52.4597 193.77 52.8897V55.3997H193.13V55.3997Z" fill="white"/>
<path d="M198.8 55.34C198.37 55.52 197.78 55.5 197.36 55.32C196.93 55.13 196.61 54.8 196.47 54.34C196.31 53.83 196.32 53.1 196.53 52.61C196.73 52.16 197.09 51.84 197.56 51.71C198.02 51.57 198.57 51.61 198.97 51.84C199.4 52.08 199.61 52.37 199.73 52.82C199.87 53.3 199.87 53.84 199.74 54.31C199.63 54.76 199.24 55.16 198.8 55.34ZM198.02 52.12C197.62 52.14 197.22 52.3999 197.1 52.7899C196.96 53.2299 196.98 53.76 197.08 54.23C197.16 54.59 197.51 54.89 197.88 54.95C198.29 55.01 198.79 54.88 199 54.48C199.25 53.96 199.24 53.21 199.03 52.69C198.88 52.29 198.45 52.1 198.02 52.12Z" fill="white"/>
<path d="M201.7 50.7893C201.54 50.7893 201.43 50.9393 201.43 51.0793V51.6793H202.15V52.1693H201.43V55.3893H200.77V52.1693H200.13V51.6793H200.77V51.0593C200.77 50.7993 200.84 50.5994 200.99 50.4694C201.12 50.3494 201.3 50.2793 201.55 50.2793H202.38V50.7793H201.7V50.7893Z" fill="white"/>
<path d="M208.83 55.4008L208.19 53.8807H205.9L205.27 55.4008H204.56L206.69 50.3008H207.36L209.57 55.4008H208.83ZM207.02 51.2108L206.11 53.3807H207.97L207.02 51.2108Z" fill="white"/>
<path d="M212.73 55.0799C212.44 55.3799 211.97 55.4599 211.58 55.4799C211.21 55.4999 210.81 55.4198 210.51 55.1798C210.22 54.9398 210.02 54.5699 209.94 54.2099H210.62C210.65 54.4399 210.75 54.6799 210.93 54.8199C211.11 54.9699 211.4 54.9899 211.63 54.9799C211.87 54.9699 212.11 54.8999 212.28 54.7399C212.39 54.6299 212.42 54.4799 212.41 54.3299C212.39 54.1499 212.27 54.0499 212.14 53.9799C211.9 53.8699 211.28 53.6699 210.93 53.5899C210.7 53.5299 210.35 53.3699 210.19 53.1199C210.05 52.8799 210.02 52.5398 210.14 52.2898C210.27 52.0098 210.55 51.7899 210.83 51.7099C211.29 51.5699 211.87 51.5899 212.31 51.8099C212.68 51.9999 212.86 52.3499 212.97 52.7299H212.27C212.22 52.4999 212.09 52.2698 211.86 52.1798C211.6 52.0798 211.13 52.0798 210.89 52.2598C210.75 52.3598 210.65 52.5699 210.71 52.7199C210.76 52.8599 210.98 52.9698 211.11 53.0098C211.56 53.1198 212.16 53.3099 212.53 53.4899C212.83 53.6299 213.04 53.9498 213.05 54.2798C213.07 54.5698 212.95 54.8599 212.73 55.0799Z" fill="white"/>
<path d="M216.31 55.0799C216.02 55.3799 215.56 55.4599 215.16 55.4799C214.79 55.4999 214.38 55.4198 214.08 55.1798C213.79 54.9398 213.59 54.5699 213.51 54.2099H214.19C214.21 54.4399 214.32 54.6799 214.49 54.8199C214.68 54.9699 214.96 54.9899 215.19 54.9799C215.44 54.9699 215.67 54.8999 215.84 54.7399C215.94 54.6299 215.98 54.4799 215.97 54.3299C215.96 54.1499 215.84 54.0499 215.69 53.9799C215.45 53.8699 214.84 53.6699 214.48 53.5899C214.25 53.5299 213.9 53.3699 213.75 53.1199C213.61 52.8799 213.58 52.5398 213.7 52.2898C213.83 52.0098 214.11 51.7899 214.39 51.7099C214.85 51.5699 215.44 51.5899 215.87 51.8099C216.23 51.9999 216.42 52.3499 216.53 52.7299H215.83C215.78 52.4999 215.64 52.2698 215.41 52.1798C215.15 52.0798 214.68 52.0798 214.44 52.2598C214.3 52.3598 214.21 52.5699 214.27 52.7199C214.32 52.8599 214.53 52.9698 214.67 53.0098C215.12 53.1198 215.72 53.3099 216.09 53.4899C216.39 53.6299 216.6 53.9498 216.61 54.2798C216.65 54.5698 216.53 54.8599 216.31 55.0799Z" fill="white"/>
<path d="M219.56 55.34C219.13 55.52 218.54 55.5 218.11 55.32C217.68 55.13 217.36 54.8 217.22 54.34C217.07 53.83 217.07 53.1 217.28 52.61C217.48 52.16 217.84 51.84 218.31 51.71C218.77 51.57 219.32 51.61 219.72 51.84C220.14 52.08 220.35 52.37 220.48 52.82C220.62 53.3 220.62 53.84 220.49 54.31C220.37 54.76 219.99 55.16 219.56 55.34ZM218.77 52.12C218.38 52.14 217.97 52.3999 217.85 52.7899C217.71 53.2299 217.73 53.76 217.83 54.23C217.91 54.59 218.26 54.89 218.63 54.95C219.05 55.01 219.55 54.88 219.75 54.48C220.01 53.96 219.98 53.21 219.78 52.69C219.63 52.29 219.2 52.1 218.77 52.12Z" fill="white"/>
<path d="M223.83 55.0401C223.55 55.3301 223.18 55.4501 222.79 55.4601C222.38 55.4801 221.98 55.3501 221.68 55.1001C221 54.5301 220.96 53.3201 221.22 52.6201C221.36 52.2501 221.7 51.94 222.07 51.76C222.51 51.56 223.09 51.5701 223.51 51.7901C223.83 51.9801 224.2 52.43 224.28 52.77H223.58C223.49 52.49 223.25 52.1801 222.94 52.1101C222.54 52.0301 222.16 52.2001 221.93 52.5501C221.58 53.0601 221.63 53.9101 221.9 54.4401C222.02 54.7001 222.26 54.8801 222.54 54.9501C222.82 55.0201 223.11 54.97 223.32 54.77C223.5 54.6 223.65 54.26 223.67 54.02H224.33C224.27 54.4 224.1 54.7801 223.83 55.0401Z" fill="white"/>
<path d="M225.22 50.2793H225.88V50.9393H225.22V50.2793ZM225.22 51.6793H225.88V55.3893H225.22V51.6793Z" fill="white"/>
<path d="M229.59 55.4002C229.52 55.2502 229.47 55.0602 229.45 54.9102C229.12 55.2002 228.72 55.4103 228.29 55.4703C227.99 55.5003 227.64 55.4703 227.38 55.3303C227.14 55.1903 226.97 55.0102 226.89 54.7602C226.81 54.4902 226.81 54.1903 226.91 53.9303C227.02 53.6403 227.25 53.4503 227.56 53.3403C227.82 53.2503 228.18 53.2103 228.49 53.1803C228.82 53.1503 229.2 53.0303 229.4 52.8503C229.42 52.7103 229.4 52.4903 229.26 52.3403C229.13 52.2003 228.93 52.1303 228.74 52.1103C228.49 52.0803 228.17 52.1203 227.94 52.2203C227.7 52.3203 227.56 52.5202 227.49 52.7602H226.82C226.87 52.3702 227.2 52.0003 227.57 51.8203C227.89 51.6703 228.36 51.6003 228.71 51.6103C229.08 51.6303 229.49 51.7302 229.75 52.0102C229.96 52.2402 230.04 52.5402 230.03 52.9002C230.02 53.3602 230.02 53.9903 230.03 54.3203C230.04 54.6803 230.16 55.1402 230.3 55.4102H229.59V55.4002ZM229.37 53.4303C229.11 53.5703 228.82 53.6703 228.55 53.6903C228.3 53.7003 228.06 53.7403 227.87 53.8003C227.7 53.8603 227.59 53.9503 227.52 54.1003C227.45 54.2403 227.44 54.4303 227.5 54.5803C227.56 54.7503 227.7 54.8502 227.86 54.9102C228 54.9502 228.17 54.9502 228.32 54.9202C228.76 54.8502 229.12 54.6103 229.37 54.2403V53.4303Z" fill="white"/>
<path d="M232.34 55.389H231.76C231.56 55.389 231.41 55.3391 231.31 55.2391C231.2 55.1391 231.15 54.9791 231.15 54.7791V52.1691H230.63V51.6891H231.15V50.2891H231.79V51.6891H232.52V52.1791H231.79V54.7091C231.79 54.8191 231.9 54.899 232 54.899H232.64L232.34 55.389Z" fill="white"/>
<path d="M233.34 50.2793H234V50.9393H233.34V50.2793ZM233.34 51.6793H234V55.3893H233.34V51.6793Z" fill="white"/>
<path d="M237.36 55.34C236.93 55.52 236.34 55.5 235.91 55.32C235.48 55.13 235.16 54.8 235.02 54.34C234.86 53.83 234.87 53.1 235.08 52.61C235.27 52.16 235.64 51.84 236.11 51.71C236.57 51.57 237.12 51.61 237.52 51.84C237.94 52.08 238.15 52.37 238.28 52.82C238.42 53.3 238.42 53.84 238.3 54.31C238.18 54.76 237.79 55.16 237.36 55.34ZM236.57 52.12C236.18 52.14 235.78 52.3999 235.66 52.7899C235.52 53.2299 235.54 53.76 235.64 54.23C235.72 54.59 236.07 54.89 236.43 54.95C236.85 55.01 237.35 54.88 237.55 54.48C237.81 53.96 237.78 53.21 237.58 52.69C237.43 52.29 237 52.1 236.57 52.12Z" fill="white"/>
<path d="M241.38 55.3997V52.9898C241.38 52.6498 241.28 52.2897 240.95 52.1597C240.66 52.0497 240.32 52.0997 240.06 52.2597C239.74 52.4497 239.63 52.7498 239.63 53.0998V55.3997H238.98V51.6898H239.54V52.1098C239.74 51.8698 239.98 51.7197 240.34 51.6497C240.76 51.5697 241.25 51.6597 241.55 51.8897C241.9 52.1497 242.02 52.4597 242.02 52.8897V55.3997H241.38V55.3997Z" fill="white"/>
<path d="M245.4 55.0799C245.1 55.3799 244.64 55.4599 244.25 55.4799C243.88 55.4999 243.48 55.4198 243.18 55.1798C242.89 54.9398 242.69 54.5699 242.6 54.2099H243.28C243.31 54.4399 243.41 54.6799 243.59 54.8199C243.78 54.9699 244.06 54.9899 244.29 54.9799C244.53 54.9699 244.77 54.8999 244.94 54.7399C245.05 54.6299 245.08 54.4799 245.07 54.3299C245.05 54.1499 244.93 54.0499 244.79 53.9799C244.55 53.8699 243.94 53.6699 243.59 53.5899C243.36 53.5299 243 53.3699 242.85 53.1199C242.71 52.8799 242.69 52.5398 242.81 52.2898C242.94 52.0098 243.22 51.7899 243.5 51.7099C243.96 51.5699 244.54 51.5899 244.98 51.8099C245.34 51.9999 245.53 52.3499 245.64 52.7299H244.95C244.9 52.4999 244.76 52.2698 244.53 52.1798C244.27 52.0798 243.8 52.0798 243.56 52.2598C243.42 52.3598 243.32 52.5699 243.38 52.7199C243.43 52.8599 243.65 52.9698 243.78 53.0098C244.22 53.1198 244.83 53.3099 245.19 53.4899C245.49 53.6299 245.7 53.9498 245.72 54.2798C245.73 54.5698 245.61 54.8599 245.4 55.0799Z" fill="white"/>
<path d="M250.63 55.34C250.2 55.52 249.61 55.5 249.18 55.32C248.75 55.13 248.43 54.8 248.29 54.34C248.13 53.83 248.14 53.1 248.36 52.61C248.55 52.16 248.92 51.84 249.39 51.71C249.86 51.57 250.4 51.61 250.8 51.84C251.22 52.08 251.43 52.37 251.56 52.82C251.69 53.3 251.69 53.84 251.57 54.31C251.45 54.76 251.07 55.16 250.63 55.34ZM249.85 52.12C249.45 52.14 249.05 52.3999 248.93 52.7899C248.8 53.2299 248.81 53.76 248.91 54.23C248.99 54.59 249.34 54.89 249.71 54.95C250.13 55.01 250.63 54.88 250.83 54.48C251.09 53.96 251.07 53.21 250.86 52.69C250.7 52.29 250.27 52.1 249.85 52.12Z" fill="white"/>
<path d="M253.52 50.7893C253.35 50.7893 253.25 50.9393 253.25 51.0793V51.6793H253.97V52.1693H253.25V55.3893H252.59V52.1693H251.96V51.6793H252.59V51.0593C252.59 50.7993 252.66 50.5994 252.81 50.4694C252.94 50.3494 253.12 50.2793 253.37 50.2793H254.2V50.7793H253.52V50.7893Z" fill="white"/>
<path d="M260.21 52.7506C259.88 53.1106 259.5 53.2306 259 53.2306H257.23V55.4105H256.58V50.9806C256.58 50.7806 256.66 50.6205 256.77 50.5105C256.89 50.3805 257.06 50.3105 257.23 50.3105H259.14C259.54 50.3105 259.94 50.4505 260.2 50.7605C260.42 51.0305 260.53 51.4305 260.53 51.7705C260.54 52.1205 260.44 52.4906 260.21 52.7506ZM259.69 51.1006C259.5 50.8706 259.21 50.7705 258.92 50.7705H257.41C257.31 50.7705 257.24 50.8706 257.24 50.9506V52.7206H258.91C259.17 52.7206 259.43 52.6606 259.63 52.4806C259.79 52.3206 259.86 52.0906 259.86 51.8706C259.88 51.6306 259.84 51.2906 259.69 51.1006Z" fill="white"/>
<path d="M263.69 55.399V52.9291C263.69 52.6391 263.57 52.3891 263.35 52.2391C263.11 52.0891 262.81 52.1091 262.53 52.1691C262.18 52.2391 261.88 52.5291 261.74 52.8691V55.399H261.11V50.2891H261.74V52.1191C262.03 51.8391 262.39 51.669 262.76 51.639C263.16 51.589 263.61 51.6691 263.9 51.9391C264.16 52.1791 264.32 52.5291 264.32 52.8491V55.4091H263.69V55.399Z" fill="white"/>
<path d="M266.52 56.3796C266.45 56.5296 266.35 56.6597 266.22 56.7297C266.1 56.7997 265.95 56.8397 265.8 56.8397H265.29L265 56.3397H265.64C265.77 56.3397 265.88 56.2396 265.92 56.1296L266.28 55.2297L264.78 51.6797H265.51L266.64 54.3497L267.76 51.6797H268.49L266.52 56.3796Z" fill="white"/>
<path d="M271.63 55.0799C271.34 55.3799 270.87 55.4599 270.48 55.4799C270.11 55.4999 269.71 55.4198 269.41 55.1798C269.11 54.9398 268.93 54.5699 268.84 54.2099H269.52C269.55 54.4399 269.65 54.6799 269.83 54.8199C270.01 54.9699 270.3 54.9899 270.53 54.9799C270.78 54.9699 271.01 54.8999 271.18 54.7399C271.28 54.6299 271.32 54.4799 271.31 54.3299C271.3 54.1499 271.18 54.0499 271.03 53.9799C270.8 53.8699 270.18 53.6699 269.83 53.5899C269.6 53.5299 269.24 53.3699 269.09 53.1199C268.95 52.8799 268.93 52.5398 269.05 52.2898C269.18 52.0098 269.46 51.7899 269.74 51.7099C270.2 51.5699 270.79 51.5899 271.22 51.8099C271.58 51.9999 271.77 52.3499 271.88 52.7299H271.19C271.14 52.4999 271 52.2698 270.77 52.1798C270.51 52.0798 270.04 52.0798 269.8 52.2598C269.66 52.3598 269.57 52.5699 269.62 52.7199C269.67 52.8599 269.88 52.9698 270.02 53.0098C270.46 53.1198 271.07 53.3099 271.44 53.4899C271.74 53.6299 271.95 53.9498 271.96 54.2798C271.97 54.5698 271.85 54.8599 271.63 55.0799Z" fill="white"/>
<path d="M272.85 50.2793H273.51V50.9393H272.85V50.2793ZM272.85 51.6793H273.51V55.3893H272.85V51.6793Z" fill="white"/>
<path d="M277.17 55.0401C276.89 55.3301 276.52 55.4501 276.12 55.4601C275.71 55.4801 275.32 55.3501 275.01 55.1001C274.33 54.5301 274.3 53.3201 274.56 52.6201C274.69 52.2501 275.03 51.94 275.4 51.76C275.84 51.56 276.42 51.5701 276.84 51.7901C277.16 51.9801 277.53 52.43 277.61 52.77H276.92C276.82 52.49 276.58 52.1801 276.27 52.1101C275.87 52.0301 275.49 52.2001 275.26 52.5501C274.92 53.0601 274.96 53.9101 275.23 54.4401C275.36 54.7001 275.6 54.8801 275.87 54.9501C276.15 55.0201 276.44 54.97 276.65 54.77C276.83 54.6 276.98 54.26 277 54.02H277.66C277.61 54.4 277.43 54.7801 277.17 55.0401Z" fill="white"/>
<path d="M280.92 55.4002C280.86 55.2502 280.8 55.0602 280.78 54.9102C280.46 55.2002 280.05 55.4103 279.62 55.4703C279.31 55.5003 278.97 55.4703 278.7 55.3303C278.47 55.1903 278.3 55.0102 278.21 54.7602C278.12 54.4902 278.13 54.1903 278.22 53.9303C278.34 53.6403 278.57 53.4503 278.87 53.3403C279.13 53.2503 279.49 53.2103 279.79 53.1803C280.13 53.1503 280.5 53.0303 280.71 52.8503C280.72 52.7103 280.71 52.4903 280.57 52.3403C280.44 52.2003 280.24 52.1303 280.05 52.1103C279.8 52.0803 279.48 52.1203 279.25 52.2203C279.01 52.3203 278.87 52.5202 278.8 52.7602H278.13C278.19 52.3702 278.52 52.0003 278.89 51.8203C279.21 51.6703 279.69 51.6003 280.03 51.6103C280.4 51.6303 280.8 51.7302 281.07 52.0102C281.28 52.2402 281.36 52.5402 281.36 52.9002C281.35 53.3602 281.35 53.9903 281.36 54.3203C281.36 54.6803 281.48 55.1402 281.62 55.4102H280.92V55.4002ZM280.71 53.4303C280.45 53.5703 280.16 53.6703 279.9 53.6903C279.65 53.7003 279.41 53.7403 279.22 53.8003C279.04 53.8603 278.94 53.9503 278.87 54.1003C278.8 54.2403 278.8 54.4303 278.85 54.5803C278.91 54.7503 279.04 54.8502 279.2 54.9102C279.34 54.9502 279.51 54.9502 279.66 54.9202C280.1 54.8502 280.47 54.6103 280.71 54.2403V53.4303Z" fill="white"/>
<path d="M283 50.2793H282.33V55.3893H283V50.2793Z" fill="white"/>
<path d="M288.01 50.7893V55.3993H287.36V50.7893H285.58V50.2793H289.75V50.7893H288.01Z" fill="white"/>
<path d="M292.82 55.399V52.9291C292.82 52.6391 292.7 52.3891 292.48 52.2391C292.24 52.0891 291.94 52.1091 291.66 52.1691C291.31 52.2391 291.01 52.5291 290.88 52.8691V55.399H290.25V50.2891H290.88V52.1191C291.17 51.8391 291.52 51.669 291.89 51.639C292.29 51.589 292.74 51.6691 293.04 51.9391C293.3 52.1791 293.46 52.5291 293.46 52.8491V55.4091H292.82V55.399Z" fill="white"/>
<path d="M296.84 55.26C296.55 55.46 296.03 55.5101 295.62 55.4701C295.16 55.4201 294.75 55.2401 294.48 54.8501C294.22 54.4801 294.08 53.9901 294.09 53.5001C294.09 53.0901 294.19 52.7001 294.38 52.3701C294.68 51.8301 295.24 51.6101 295.81 51.6001C296.34 51.5901 296.74 51.7401 297.06 52.1001C297.33 52.4101 297.46 52.89 297.45 53.3C297.43 53.54 297.29 53.66 297.05 53.66H294.75C294.79 54.1 294.93 54.52 295.26 54.78C295.46 54.95 295.71 54.9901 295.97 54.9801C296.18 54.9701 296.37 54.9001 296.52 54.7501C296.67 54.6001 296.76 54.3801 296.8 54.2001H297.51C297.42 54.5601 297.19 55.02 296.84 55.26ZM296.45 52.27C296.16 52.07 295.75 52.09 295.43 52.18C295.01 52.31 294.8 52.76 294.79 53.16H296.7C296.79 53.16 296.84 53.0801 296.84 53.0001C296.83 52.7501 296.67 52.42 296.45 52.27Z" fill="white"/>
<path d="M299.56 52.2401C299.36 52.2101 299.19 52.3 299.05 52.43C298.85 52.64 298.76 52.9201 298.71 53.1901V55.38H298.08V51.67H298.71V52.13C298.83 51.94 299.12 51.68 299.36 51.64C299.63 51.59 299.94 51.6901 300.16 51.8301V52.5701C300.03 52.4501 299.77 52.2701 299.56 52.2401Z" fill="white"/>
<path d="M303.34 55.4002C303.28 55.2502 303.22 55.0602 303.2 54.9102C302.88 55.2002 302.48 55.4103 302.04 55.4703C301.73 55.5003 301.39 55.4703 301.13 55.3303C300.89 55.1903 300.72 55.0102 300.64 54.7602C300.55 54.4902 300.56 54.1903 300.65 53.9303C300.77 53.6403 301 53.4503 301.3 53.3403C301.56 53.2503 301.93 53.2103 302.22 53.1803C302.55 53.1503 302.93 53.0303 303.14 52.8503C303.15 52.7103 303.14 52.4903 303 52.3403C302.87 52.2003 302.67 52.1303 302.48 52.1103C302.23 52.0803 301.92 52.1203 301.68 52.2203C301.44 52.3203 301.3 52.5202 301.24 52.7602H300.57C300.62 52.3702 300.95 52.0003 301.32 51.8203C301.63 51.6703 302.11 51.6003 302.46 51.6103C302.83 51.6303 303.23 51.7302 303.5 52.0102C303.71 52.2402 303.79 52.5402 303.79 52.9002C303.78 53.3602 303.78 53.9903 303.79 54.3203C303.8 54.6803 303.91 55.1402 304.05 55.4102H303.34V55.4002ZM303.12 53.4303C302.87 53.5703 302.57 53.6703 302.3 53.6903C302.05 53.7003 301.81 53.7403 301.62 53.8003C301.45 53.8603 301.34 53.9503 301.27 54.1003C301.21 54.2403 301.2 54.4303 301.25 54.5803C301.3 54.7503 301.44 54.8502 301.61 54.9102C301.75 54.9502 301.92 54.9502 302.07 54.9202C302.51 54.8502 302.88 54.6103 303.12 54.2403V53.4303Z" fill="white"/>
<path d="M307.2 55.2499C306.92 55.4199 306.6 55.4899 306.27 55.4499C305.91 55.3999 305.57 55.2199 305.35 54.9099V56.8299H304.71V51.6899H305.35V52.2299C305.53 51.9199 305.82 51.7098 306.16 51.6398C306.51 51.5698 306.89 51.6399 307.19 51.8299C307.51 52.0199 307.68 52.2898 307.81 52.6298C308.03 53.2098 308.05 53.8799 307.82 54.4699C307.71 54.7999 307.51 55.0599 307.2 55.2499ZM307.08 52.5799C306.95 52.3499 306.69 52.1698 306.43 52.1298C306.11 52.0998 305.84 52.2199 305.66 52.4699C305.27 53.0099 305.28 53.8499 305.57 54.4399C305.73 54.7499 306.01 54.9499 306.37 54.9599C306.69 54.9599 306.98 54.7199 307.1 54.4599C307.39 53.8999 307.39 53.1199 307.08 52.5799Z" fill="white"/>
<path d="M308.93 50.2793H309.59V50.9393H308.93V50.2793ZM308.93 51.6793H309.59V55.3893H308.93V51.6793Z" fill="white"/>
<path d="M313.28 55.0799C312.99 55.3799 312.52 55.4599 312.13 55.4799C311.76 55.4999 311.35 55.4198 311.06 55.1798C310.76 54.9398 310.57 54.5699 310.48 54.2099H311.16C311.19 54.4399 311.29 54.6799 311.47 54.8199C311.66 54.9699 311.94 54.9899 312.17 54.9799C312.41 54.9699 312.65 54.8999 312.82 54.7399C312.93 54.6299 312.96 54.4799 312.95 54.3299C312.94 54.1499 312.81 54.0499 312.67 53.9799C312.43 53.8699 311.82 53.6699 311.47 53.5899C311.24 53.5299 310.88 53.3699 310.73 53.1199C310.59 52.8799 310.57 52.5398 310.69 52.2898C310.82 52.0098 311.1 51.7899 311.38 51.7099C311.85 51.5699 312.42 51.5899 312.86 51.8099C313.22 51.9999 313.41 52.3499 313.52 52.7299H312.82C312.77 52.4999 312.63 52.2698 312.4 52.1798C312.14 52.0798 311.67 52.0798 311.43 52.2598C311.29 52.3598 311.2 52.5699 311.25 52.7199C311.3 52.8599 311.51 52.9698 311.65 53.0098C312.09 53.1198 312.7 53.3099 313.07 53.4899C313.37 53.6299 313.58 53.9498 313.59 54.2798C313.61 54.5698 313.49 54.8599 313.28 55.0799Z" fill="white"/>
<path d="M315.65 55.389H315.07C314.87 55.389 314.72 55.3391 314.62 55.2391C314.51 55.1391 314.45 54.9791 314.45 54.7791V52.1691H313.93V51.6891H314.45V50.2891H315.09V51.6891H315.82V52.1791H315.09V54.7091C315.09 54.8191 315.2 54.899 315.29 54.899H315.93L315.65 55.389Z" fill="white"/>
<path d="M319 55.0799C318.71 55.3799 318.24 55.4599 317.85 55.4799C317.48 55.4999 317.08 55.4198 316.78 55.1798C316.48 54.9398 316.29 54.5699 316.21 54.2099H316.89C316.92 54.4399 317.02 54.6799 317.2 54.8199C317.39 54.9699 317.67 54.9899 317.9 54.9799C318.15 54.9699 318.38 54.8999 318.55 54.7399C318.66 54.6299 318.69 54.4799 318.68 54.3299C318.67 54.1499 318.54 54.0499 318.4 53.9799C318.17 53.8699 317.55 53.6699 317.2 53.5899C316.97 53.5299 316.62 53.3699 316.46 53.1199C316.32 52.8799 316.3 52.5398 316.42 52.2898C316.55 52.0098 316.83 51.7899 317.11 51.7099C317.58 51.5699 318.16 51.5899 318.59 51.8099C318.96 51.9999 319.14 52.3499 319.25 52.7299H318.55C318.5 52.4999 318.36 52.2698 318.14 52.1798C317.88 52.0798 317.41 52.0798 317.17 52.2598C317.03 52.3598 316.93 52.5699 316.99 52.7199C317.04 52.8599 317.26 52.9698 317.39 53.0098C317.83 53.1198 318.44 53.3099 318.81 53.4899C319.11 53.6299 319.32 53.9498 319.33 54.2798C319.34 54.5698 319.22 54.8599 319 55.0799Z" fill="white"/>
<path d="M320.61 56.2906H320.16C320.39 55.9706 320.47 55.6806 320.51 55.4006H320.17V54.7207H320.88C320.94 55.3707 320.87 55.7706 320.61 56.2906Z" fill="white"/>
<path d="M324.11 50.7893V55.3993H323.46V50.7893H321.68V50.2793H325.86V50.7893H324.11Z" fill="white"/>
<path d="M329.03 55.4002C328.97 55.2502 328.91 55.0602 328.89 54.9102C328.56 55.2002 328.16 55.4103 327.73 55.4703C327.42 55.5003 327.08 55.4703 326.81 55.3303C326.57 55.1903 326.4 55.0102 326.32 54.7602C326.24 54.4902 326.25 54.1903 326.34 53.9303C326.45 53.6403 326.68 53.4503 326.99 53.3403C327.25 53.2503 327.61 53.2103 327.91 53.1803C328.25 53.1503 328.62 53.0303 328.82 52.8503C328.84 52.7103 328.82 52.4903 328.69 52.3403C328.56 52.2003 328.36 52.1303 328.17 52.1103C327.92 52.0803 327.61 52.1203 327.37 52.2203C327.13 52.3203 326.99 52.5202 326.93 52.7602H326.26C326.31 52.3702 326.64 52.0003 327.01 51.8203C327.33 51.6703 327.81 51.6003 328.15 51.6103C328.52 51.6303 328.92 51.7302 329.18 52.0102C329.4 52.2402 329.48 52.5402 329.47 52.9002C329.47 53.3602 329.47 53.9903 329.47 54.3203C329.48 54.6803 329.59 55.1402 329.74 55.4102H329.03V55.4002ZM328.82 53.4303C328.56 53.5703 328.27 53.6703 328 53.6903C327.75 53.7003 327.51 53.7403 327.32 53.8003C327.15 53.8603 327.04 53.9503 326.97 54.1003C326.91 54.2403 326.9 54.4303 326.95 54.5803C327.01 54.7503 327.15 54.8502 327.31 54.9102C327.44 54.9502 327.61 54.9502 327.76 54.9202C328.2 54.8502 328.57 54.6103 328.82 54.2403V53.4303Z" fill="white"/>
<path d="M330.63 50.2793H331.29V50.9393H330.63V50.2793ZM330.63 51.6793H331.29V55.3893H330.63V51.6793Z" fill="white"/>
<path d="M332.11 51.6899H332.78L333.39 53.84L333.45 54.0599L333.56 54.4399L333.61 54.6299H333.62L333.66 54.4399L333.75 54.1499L333.82 53.86L334.42 51.6799H335.09L335.66 53.83C335.67 53.89 335.7 53.98 335.73 54.1C335.8 54.33 335.81 54.3799 335.85 54.5399H335.86C335.9 54.3799 335.91 54.36 335.98 54.12C336.01 54.01 336.05 53.9099 336.08 53.8199L336.73 51.6699H337.36L336.16 55.37H335.49L334.89 53.12L334.77 52.58L334.76 52.49H334.74L333.97 55.37H333.3L332.11 51.6899Z" fill="white"/>
<path d="M340.55 55.4002C340.48 55.2502 340.43 55.0602 340.41 54.9102C340.08 55.2002 339.68 55.4103 339.25 55.4703C338.94 55.5003 338.6 55.4703 338.33 55.3303C338.09 55.1903 337.92 55.0102 337.84 54.7602C337.76 54.4902 337.76 54.1903 337.86 53.9303C337.98 53.6403 338.2 53.4503 338.51 53.3403C338.77 53.2503 339.13 53.2103 339.43 53.1803C339.77 53.1503 340.14 53.0303 340.35 52.8503C340.36 52.7103 340.35 52.4903 340.21 52.3403C340.08 52.2003 339.88 52.1303 339.69 52.1103C339.44 52.0803 339.12 52.1203 338.88 52.2203C338.65 52.3203 338.5 52.5202 338.44 52.7602H337.76C337.81 52.3702 338.14 52.0003 338.51 51.8203C338.82 51.6703 339.3 51.6003 339.65 51.6103C340.02 51.6303 340.42 51.7302 340.69 52.0102C340.91 52.2402 340.99 52.5402 340.98 52.9002C340.97 53.3602 340.97 53.9903 340.98 54.3203C340.99 54.6803 341.1 55.1402 341.24 55.4102H340.55V55.4002ZM340.33 53.4303C340.07 53.5703 339.77 53.6703 339.51 53.6903C339.26 53.7003 339.01 53.7403 338.83 53.8003C338.66 53.8603 338.55 53.9503 338.48 54.1003C338.42 54.2403 338.41 54.4303 338.46 54.5803C338.52 54.7503 338.66 54.8502 338.82 54.9102C338.95 54.9502 339.13 54.9502 339.28 54.9202C339.72 54.8502 340.08 54.6103 340.33 54.2403V53.4303Z" fill="white"/>
<path d="M344.22 55.3997V52.9898C344.22 52.6498 344.12 52.2897 343.79 52.1597C343.5 52.0497 343.16 52.0997 342.9 52.2597C342.58 52.4497 342.47 52.7498 342.47 53.0998V55.3997H341.83V51.6898H342.39V52.1098C342.59 51.8698 342.82 51.7197 343.19 51.6497C343.6 51.5697 344.1 51.6597 344.4 51.8897C344.75 52.1497 344.86 52.4597 344.86 52.8897V55.3997H344.22V55.3997Z" fill="white"/>
<path d="M351.26 55.399C351.03 55.119 350.71 54.5891 350.43 54.0791C350.19 53.6491 349.72 53.149 349.29 53.009H348.18V55.399H347.53V50.9491C347.53 50.7791 347.6 50.6091 347.71 50.4991C347.83 50.3691 348.01 50.2891 348.2 50.2891H350.39C350.76 50.2891 351.09 50.479 351.32 50.759C351.53 51.029 351.62 51.3791 351.6 51.7191C351.59 52.0391 351.47 52.3491 351.26 52.5791C351 52.8591 350.69 52.9891 350.31 52.9791C350.58 53.2091 350.79 53.4591 350.98 53.7791C351.31 54.3491 351.74 54.989 352.14 55.399H351.26ZM350.75 51.0391C350.61 50.8791 350.41 50.7791 350.2 50.7791H348.37C348.27 50.7791 348.16 50.8791 348.16 50.9791V52.4891H350.09C350.33 52.4891 350.53 52.439 350.71 52.259C350.85 52.109 350.92 51.9091 350.94 51.6991C350.96 51.4891 350.91 51.2191 350.75 51.0391Z" fill="white"/>
<path d="M353.52 54.7207H352.81V55.4006H353.52V54.7207Z" fill="white"/>
<path d="M358.73 54.6894C358.06 55.4494 356.95 55.6094 356.02 55.3194C355.27 55.0794 354.75 54.3994 354.56 53.6694C354.29 52.6794 354.52 51.5194 355.27 50.8194C355.81 50.3194 356.58 50.1594 357.29 50.2694C358.31 50.4194 358.99 51.0794 359.25 52.0794C359.46 52.9694 359.32 54.0194 358.73 54.6894ZM357.52 50.8595C356.92 50.6195 356.2 50.7694 355.74 51.1994C355.13 51.7794 355.03 52.6994 355.18 53.5194C355.29 54.1394 355.84 54.7694 356.47 54.9194C357.02 55.0494 357.62 54.9294 358.03 54.5394C358.64 53.9594 358.78 53.0194 358.59 52.2294C358.45 51.6094 358.11 51.1095 357.52 50.8595Z" fill="white"/>
<path d="M360.93 54.7207H360.22V55.4006H360.93V54.7207Z" fill="white"/>
<path d="M365.36 55.2105C364.89 55.4405 364.29 55.5105 363.78 55.4305C363.24 55.3605 362.78 55.1406 362.41 54.7206C361.97 54.2206 361.78 53.6005 361.78 52.9105C361.77 51.9505 362.08 50.9906 362.99 50.5006C363.63 50.1606 364.52 50.1105 365.22 50.4005C365.81 50.6505 366.25 51.2005 366.48 51.7905H365.74C365.51 51.3505 365.27 51.0305 364.81 50.8305C364.43 50.6805 363.97 50.6405 363.58 50.8005C362.71 51.1405 362.42 52.0106 362.44 52.8706C362.47 53.6006 362.68 54.3106 363.34 54.7206C363.82 55.0106 364.53 55.0306 365.03 54.7406C365.4 54.5306 365.7 54.1005 365.83 53.6905H366.57C366.38 54.3205 365.94 54.9305 365.36 55.2105Z" fill="white"/>
<path d="M368.09 54.7207H367.38V55.4006H368.09V54.7207Z" fill="white"/>
<path d="M59.0998 16.2205V21.6404H58.0998V17.4404C57.9898 17.5604 57.8098 17.7404 57.7198 17.8304H56.2998C57.8498 16.4704 58.7498 15.2804 59.2598 14.3204C59.3198 14.2204 59.2498 14.0404 59.1098 14.0404H56.8098V13.2704H57.9098C57.8198 13.0404 57.5898 12.3904 57.4798 11.9204H58.5198C58.6398 12.3904 58.8098 12.9104 58.9598 13.2704H59.5198C59.7798 13.2704 59.9998 13.3904 60.1398 13.5804C60.2798 13.7804 60.3298 14.0404 60.2398 14.3004C60.0298 14.8704 59.4398 15.7605 59.0998 16.2205ZM59.9898 18.3304C59.7098 17.7104 59.4898 17.0305 59.3198 16.3605H60.3398C60.4898 17.0505 60.7898 17.7104 61.1298 18.3304H59.9898ZM60.6198 21.6504V20.8605H62.7998V15.2904H60.7598V14.4705H62.7998V11.9004H63.8198V14.4705H65.8798V15.2904H63.8198V20.8605H66.1598V21.6504H60.6198Z" fill="white"/>
<path d="M76.92 21.3296C76.73 21.5496 76.45 21.6595 76.13 21.6595H68.72C68.43 21.6595 68.15 21.5496 67.96 21.3296C67.81 21.1596 67.71 20.9196 67.71 20.6096V13.0195C67.71 12.7695 67.83 12.5296 68.02 12.3496C68.2 12.1996 68.42 12.0996 68.69 12.0996H76.07C76.43 12.0996 76.68 12.1995 76.86 12.3895C77.05 12.5895 77.14 12.8696 77.14 13.2196V20.7496C77.14 20.9696 77.05 21.1696 76.92 21.3296ZM76.17 13.0996C76.17 12.9096 76.05 12.7695 75.86 12.7695H69.03C68.85 12.7695 68.66 12.9296 68.66 13.1196V20.6295C68.66 20.8195 68.81 20.9696 68.98 20.9696H75.87C76.04 20.9696 76.16 20.8195 76.16 20.6595V13.0996H76.17ZM74.88 18.0796C74.81 17.9996 74.71 17.8595 74.65 17.7595C73.28 17.8495 70.66 17.9695 69.1 18.0195V17.3496C69.84 17.3696 71.27 17.3395 71.99 17.2795V16.8795H70.4C70.13 16.8795 69.91 16.7995 69.74 16.6595C69.56 16.5095 69.46 16.2895 69.46 16.0095V15.2296C69.46 14.9996 69.56 14.7895 69.71 14.6395C69.87 14.4995 70.08 14.4095 70.33 14.4095H71.99V14.0396H69.1V13.3995H71.99V12.9696H72.92V13.3995H75.75V14.0396H72.92V14.4095H74.5C74.77 14.4095 75.02 14.5196 75.18 14.7196C75.31 14.8696 75.4 15.0996 75.4 15.3696V16.0896C75.4 16.3596 75.22 16.6096 75.03 16.7496C75.29 17.2096 75.69 17.7596 76 18.0896H74.88V18.0796ZM74.69 19.0396V19.7296C74.69 19.9296 74.63 20.1496 74.51 20.3096C74.39 20.4696 74.19 20.5696 73.9 20.5696H72.7L72.69 19.9196H73.48C73.62 19.9196 73.72 19.8195 73.72 19.6595V19.0396H69.1V18.3995H73.72V18.0596H74.68V18.3995H75.76V19.0396H74.69ZM70.94 20.3895C70.59 20.1095 70.09 19.6896 69.78 19.3096H71.18C71.49 19.6496 72.05 20.1295 72.52 20.3895H70.94ZM71.98 15.0095H70.61C70.53 15.0095 70.38 15.1096 70.38 15.2096V15.3496H71.98V15.0095ZM71.98 15.9196H70.38V16.0696C70.38 16.1696 70.48 16.2695 70.59 16.2695H71.98V15.9196ZM74.48 15.1896C74.48 15.0896 74.35 15.0095 74.23 15.0095H72.91V15.3496H74.48V15.1896ZM74.48 15.9196H72.91V16.2695H74.3C74.4 16.2695 74.48 16.1896 74.48 16.0796V15.9196ZM74.11 16.8795H72.91V17.2296C73.29 17.2096 73.91 17.1595 74.24 17.1395C74.2 17.0595 74.14 16.9595 74.11 16.8795Z" fill="white"/>
<path d="M79.9902 17.0096C79.4902 16.2696 79.0602 15.4897 78.7402 14.6597H79.8402C80.2102 15.4897 80.7002 16.3096 81.2902 17.0096H79.9902ZM79.8602 21.6396H78.7402C79.5202 20.2296 79.8702 18.9397 80.2802 17.4297H81.3302C80.9302 18.8897 80.5102 20.2896 79.8602 21.6396ZM79.9902 14.2697C79.4902 13.5497 79.1102 12.7697 78.7902 11.9597H79.9002C80.2102 12.7897 80.6702 13.5397 81.2302 14.2697H79.9902ZM85.1502 17.0597L82.8302 20.6497C82.8302 20.6497 82.6702 20.8397 82.9202 20.8397H86.7402L85.5802 18.0197H86.5602L88.1502 21.6296H82.3602C82.0502 21.6296 81.8302 21.5097 81.7002 21.3197C81.5802 21.1097 81.5902 20.8097 81.7802 20.5197L84.0102 17.0597H81.4902V16.2897H84.3202V14.2397H81.7702V13.4597H84.3202V11.9297H85.3502V13.4597H87.9002V14.2397H85.3502V16.2897H88.4302V17.0597H85.1502Z" fill="white"/>
<path d="M98.1998 21.6398C96.8298 20.2298 95.4198 18.2398 94.7598 16.4298C94.0698 18.5898 93.0298 20.0998 91.3198 21.6398H89.7598C91.9498 19.8698 93.2998 17.8098 93.8598 15.6898C94.1298 14.6398 94.1898 12.8498 94.1898 11.8398H95.2798C95.2898 13.0598 95.1298 15.1198 94.8498 16.0598H95.7198C96.5198 18.1198 97.8698 19.9698 99.7698 21.6398H98.1998Z" fill="white"/>
<path d="M287.2 33.9396C285.66 32.3796 284.47 30.6996 283.22 28.7996C283.06 28.5596 282.85 28.4796 282.6 28.4796H278.82C278.61 28.4796 278.37 28.6095 278.26 28.7695C277.2 30.6395 275.94 32.3596 274.24 33.9396H271.57C273.54 32.5196 274.97 30.5696 276.23 28.4596C276.54 27.9196 276.87 27.5496 277.3 27.2996C277.63 27.1196 278.04 27.0195 278.53 27.0195H283.05C283.36 27.0195 283.69 27.1195 284 27.2695C284.33 27.4295 284.62 27.6796 284.8 27.9696C286.3 30.1496 288.19 32.4896 289.93 33.9396H287.2ZM272 44.6796V43.3196H279.68V38.8396H273.23V37.4496H279.68V34.2896H275.49V32.8895H285.86V34.2896H281.65V37.4496H288.26V38.8396H281.65V43.3196H289.53V44.6796H272Z" fill="white"/>
<path d="M308.57 43.9509C308.26 44.3109 307.77 44.5809 307.09 44.5809H293.5C292.96 44.5809 292.49 44.3309 292.15 43.9309C291.84 43.5509 291.66 43.0609 291.66 42.5509V28.751C291.66 28.211 291.93 27.701 292.38 27.371C292.71 27.121 293.16 26.9609 293.69 26.9609H307C307.63 26.9609 308.13 27.2109 308.48 27.5709C308.83 27.9609 309.03 28.4909 309.03 29.0509V42.6909C309.02 43.1409 308.87 43.5909 308.57 43.9509ZM307.11 28.9709C307.11 28.7009 306.84 28.4209 306.62 28.4209H294.12C293.85 28.4209 293.54 28.6309 293.54 28.9409V42.5909C293.54 42.9409 293.87 43.1509 294.12 43.1509H306.58C306.89 43.1509 307.12 42.941 307.12 42.611V28.9709H307.11ZM304.33 38.0409C304.47 38.5909 304.76 39.6809 304.91 40.2009C304.99 40.4509 305.28 40.5909 305.51 40.5909H306.5V42.0109H305.16C304.85 42.0109 304.51 41.9709 304.2 41.8209C303.93 41.7009 303.69 41.4909 303.53 41.1709C303.39 40.8809 303.24 40.3709 303.16 40.0409C302.75 40.6309 301.86 41.7809 301.4 42.3209H299.07C300.41 40.9809 301.72 39.1809 302.58 37.8009C302.23 36.3409 301.64 33.8209 301.43 32.3409H294.2V30.9609H301.16C301.06 30.4709 300.89 29.5509 300.83 29.0709H302.5C302.58 29.5209 302.73 30.4409 302.85 30.9609H303.86C303.69 30.5509 303.45 29.7509 303.34 29.3409H304.92C305.04 29.7709 305.33 30.5709 305.5 30.9609H306.51V32.3409H303.12C303.27 33.2409 303.61 34.8909 303.82 35.6709C304.15 35.1409 304.64 33.9909 304.87 33.3109H306.66C306.08 34.6409 305.16 36.6509 304.33 38.0409ZM294.23 41.5209V39.9409C296 39.6709 299.16 38.851 300.8 38.361V39.8409C299.14 40.3609 295.96 41.2109 294.23 41.5209ZM300.37 37.5509C300.15 37.8609 299.8 38.0409 299.28 38.0409H296.08C295.67 38.0409 295.34 37.881 295.09 37.611C294.87 37.371 294.72 37.0209 294.72 36.6309V34.6409C294.72 34.2909 294.89 33.9609 295.15 33.7209C295.42 33.4909 295.79 33.351 296.16 33.351H299.08C299.59 33.351 299.98 33.5109 300.25 33.7609C300.54 34.0509 300.68 34.441 300.68 34.871V36.4309C300.68 36.8509 300.6 37.2709 300.37 37.5509ZM298.88 35.0709C298.88 34.8509 298.71 34.6809 298.49 34.6809H296.89C296.66 34.6809 296.46 34.8409 296.46 35.0909V36.3209C296.46 36.5509 296.67 36.731 296.85 36.731H298.53C298.71 36.731 298.88 36.6109 298.88 36.3409V35.0709Z" fill="white"/>
<path d="M346.23 35.6205C344.77 33.4405 343.34 31.1705 342.21 28.8405C342.07 28.5505 341.82 28.4304 341.55 28.4304H337.14C336.93 28.4304 336.73 28.5705 336.65 28.7405C335.52 30.9105 334.14 33.4205 332.81 35.6205H330.35C332.13 33.1205 333.76 30.5704 335.11 27.8804C335.26 27.5904 335.5 27.3704 335.81 27.2104C336.09 27.0704 336.42 26.9805 336.73 26.9805H342.08C342.43 26.9805 342.74 27.0805 343.03 27.2305C343.35 27.4305 343.6 27.6804 343.74 27.9504C345.06 30.5004 346.84 33.2704 348.65 35.6304H346.23V35.6205ZM346.46 44.1804C346.11 44.5104 345.64 44.6904 345.12 44.6904H333.75C333.17 44.6904 332.7 44.5104 332.4 44.1804C332.09 43.8704 331.93 43.4204 331.93 42.8804V38.4104C331.93 37.8604 332.17 37.4005 332.52 37.1005C332.87 36.8105 333.32 36.6504 333.77 36.6504H345.12C345.61 36.6504 346.07 36.8105 346.39 37.1005C346.76 37.4305 346.99 37.9404 346.99 38.5404V42.9104C346.99 43.4204 346.78 43.8804 346.46 44.1804ZM345.08 38.6005C345.08 38.3405 344.85 38.1105 344.59 38.1105H334.36C334.06 38.1105 333.81 38.3804 333.81 38.6804V42.7104C333.81 43.0204 334.07 43.2604 334.34 43.2604H344.53C344.88 43.2604 345.08 43.0304 345.08 42.7104V38.6005V38.6005ZM335.14 32.1704H343.64V33.6105H335.14V32.1704Z" fill="white"/>
<path d="M365.34 31.0199C364.42 30.2399 363.24 29.1299 362.44 28.2899C362.29 28.1499 361.97 28.0199 361.76 28.0199H356.62C356.4 28.0199 356.01 28.18 355.88 28.33C355.14 29.11 353.89 30.3199 353.03 31.0199H350.01C351.85 29.8699 353.54 28.33 354.63 27.22C354.77 27.06 354.98 26.93 355.25 26.85C355.46 26.79 355.66 26.75 355.91 26.75H362.58C362.81 26.75 363.05 26.8099 363.28 26.8899C363.53 26.9699 363.75 27.1099 363.9 27.2599C365.01 28.4299 366.49 29.7799 368.13 31.0199H365.34V31.0199ZM366.55 36.5499C366.24 36.8799 365.81 37.1299 365.3 37.1299H352.65C352.26 37.1299 351.91 36.94 351.64 36.7C351.31 36.39 351.11 35.9599 351.11 35.5499V33.3899C351.11 32.9399 351.29 32.51 351.6 32.2C351.91 31.88 352.34 31.6699 352.81 31.6699H365.19C365.64 31.6699 366.09 31.81 366.42 32.1C366.79 32.41 367.02 32.88 367.02 33.48V35.4299C367.02 35.8099 366.86 36.2199 366.55 36.5499ZM365.46 44.23C365.13 44.52 364.65 44.6799 364.1 44.6799H353.69C353.28 44.6799 352.85 44.49 352.54 44.21C352.21 43.88 351.98 43.4299 351.98 42.9299V39.71C351.98 39.26 352.25 38.8099 352.64 38.5199C352.93 38.2899 353.3 38.1499 353.69 38.1499H364.28C364.8 38.1499 365.25 38.3499 365.57 38.6699C365.9 38.9999 366.08 39.4699 366.08 40.0199V42.8999C366.09 43.4099 365.87 43.9 365.46 44.23ZM358.15 33H353.37C353.16 33 352.94 33.2 352.94 33.45V35.2999C352.94 35.6099 353.12 35.7899 353.33 35.7899H355.32C355.08 35.2699 354.56 34.1699 354.32 33.5299H356.1C356.31 34.1599 356.86 35.2499 357.15 35.7899H358.16V33H358.15ZM364.25 39.9299C364.25 39.7099 363.96 39.48 363.72 39.48H354.42C354.11 39.48 353.92 39.71 353.92 39.95V40.73H364.25V39.9299ZM364.25 42.0299H353.92V42.8099C353.92 43.0999 354.19 43.3199 354.39 43.3199H363.73C364.04 43.3199 364.25 43.0799 364.25 42.7899V42.0299ZM355.3 29.2999H363.01V30.59H355.3V29.2999ZM365.26 33.49C365.26 33.25 365.03 33 364.77 33H360V35.7899H361.01C361.38 35.1899 361.91 34.1899 362.14 33.5299H363.93C363.76 34.0599 363.27 35.1499 362.84 35.7899H364.77C365.05 35.7899 365.26 35.5599 365.26 35.2999V33.49V33.49Z" fill="white"/>
<path d="M317.11 28.5093V39.3993C317.28 39.3593 317.62 39.2994 317.85 39.2394V40.6094C317.71 40.6494 317.35 40.7493 317.11 40.8193V44.6993H315.26V41.2094C313.99 41.4394 312.41 41.6993 310.97 41.9093V40.4694C311.2 40.4494 311.61 40.4094 311.75 40.3694V28.5193H310.93V27.1293H318.03V28.5193H317.11V28.5093ZM315.26 28.5093H313.45V31.1993H315.26V28.5093ZM315.26 32.5793H313.45V35.4293H315.26V32.5793ZM315.26 36.8494H313.45V40.0493C313.94 39.9993 314.7 39.8894 315.26 39.7394V36.8494ZM318.9 35.5193C318.49 35.5193 318.1 35.3293 317.89 35.0293C317.67 34.6993 317.62 34.2693 317.95 33.7993L319.53 31.4994H318.75C318.34 31.4994 317.97 31.2493 317.8 30.9093C317.66 30.5993 317.66 30.1893 317.92 29.8193L320 26.7793H321.99L319.91 29.8394C319.91 29.8394 319.72 30.0593 319.97 30.0593H320.51L321.19 29.1094H323.2L319.77 34.0994H321.37L321.04 32.4393H322.56L323.21 35.5193H318.9ZM320.56 44.6993H317.97C319.58 43.5293 320.46 42.2093 320.87 40.9393H319.76C319.29 40.9393 318.9 40.8393 318.63 40.5693C318.36 40.3193 318.22 39.9494 318.22 39.3694V36.1493H319.94V39.1693C319.94 39.3893 320.17 39.5393 320.35 39.5393H321.09V36.1493H322.82V38.9894C322.82 41.3094 322.24 43.1593 320.56 44.6993ZM328.18 40.4293C327.91 40.7393 327.5 40.9393 326.99 40.9393H325.67V44.6993H323.93V36.1593H325.67V39.5493H326.41C326.62 39.5493 326.82 39.3593 326.82 39.1393V36.1593H328.54V39.2394C328.55 39.7494 328.4 40.1593 328.18 40.4293Z" fill="white"/>
<path d="M324.57 35.5193C324.16 35.5193 323.77 35.3293 323.56 35.0293C323.33 34.6993 323.29 34.2693 323.62 33.7993L325.2 31.4994H324.42C324.01 31.4994 323.64 31.2493 323.47 30.9093C323.33 30.5993 323.33 30.1893 323.59 29.8193L325.66 26.7793H327.65L325.57 29.8394C325.57 29.8394 325.38 30.0593 325.63 30.0593H326.17L326.85 29.1094H328.86L325.43 34.0994H327.04L326.71 32.4393H328.23L328.89 35.5193H324.57Z" fill="white"/>
<path d="M63.74 44.8499V40.0398C63.74 39.9798 63.68 39.9198 63.62 39.9198H57.85C57.28 39.9198 56.9 39.6298 56.69 39.3898C56.44 39.0798 56.29 38.6898 56.29 38.3398V32.3198C56.29 31.8098 56.49 31.3698 56.88 31.0598C57.23 30.7898 57.69 30.6398 58.18 30.6398H63.62C63.69 30.6398 63.74 30.5898 63.74 30.5198V27.0898H65.4V30.5198C65.4 30.5898 65.45 30.6398 65.52 30.6398H71.13C71.67 30.6398 72.15 30.8399 72.5 31.2399C72.77 31.5699 72.92 31.9998 72.92 32.4698V38.1398C72.92 38.6298 72.76 39.0699 72.48 39.3699C72.14 39.7299 71.65 39.9198 71.07 39.9198H65.53C65.46 39.9198 65.41 39.9798 65.41 40.0398V44.8499H63.74ZM65.53 31.8699C65.46 31.8699 65.41 31.9299 65.41 31.9899V38.5398C65.41 38.6098 65.46 38.6598 65.53 38.6598H70.6C70.9 38.6598 71.22 38.4198 71.22 38.0198V32.5598C71.22 32.1798 70.92 31.8599 70.57 31.8599H65.53V31.8699ZM58.72 31.8699C58.33 31.8699 58 32.1998 58 32.5898V37.9899C58 38.3999 58.25 38.6598 58.65 38.6598H63.62C63.69 38.6598 63.74 38.5998 63.74 38.5398V31.9899C63.74 31.9299 63.68 31.8699 63.62 31.8699H58.72V31.8699Z" fill="white"/>
<path d="M83.2998 44.89V42.63C83.2998 42.56 83.2498 42.51 83.1798 42.51H76.5098V41.4H83.1798C83.2498 41.4 83.2998 41.34 83.2998 41.28V39.6801C83.2998 39.6101 83.2498 39.5601 83.1798 39.5601H76.0898V38.51H78.4798C78.5498 38.51 78.5998 38.45 78.5998 38.39V36.4601C78.5998 36.4001 78.5498 36.3401 78.4798 36.3401H75.3198V35.2301H78.4798C78.5498 35.2301 78.5998 35.1701 78.5998 35.1101V32.9501C78.5998 32.8801 78.5498 32.8301 78.4798 32.8301H76.0798V31.7001H92.2798V32.8301H89.8398C89.7698 32.8301 89.7198 32.8901 89.7198 32.9501V35.1101C89.7198 35.1801 89.7698 35.2301 89.8398 35.2301H92.9998V36.3401H89.8398C89.7698 36.3401 89.7198 36.3901 89.7198 36.4601V38.39C89.7198 38.46 89.7698 38.51 89.8398 38.51H92.2998V39.5601H85.1398C85.0698 39.5601 85.0198 39.6201 85.0198 39.6801V41.28C85.0198 41.34 85.0698 41.4 85.1398 41.4H91.8698V42.51H85.1398C85.0698 42.51 85.0198 42.56 85.0198 42.63V44.89H83.2998ZM85.1398 36.3301C85.0698 36.3301 85.0198 36.3801 85.0198 36.4501V38.38C85.0198 38.45 85.0698 38.5001 85.1398 38.5001H87.9698C88.0398 38.5001 88.0898 38.44 88.0898 38.38V36.4501C88.0898 36.3901 88.0398 36.3301 87.9698 36.3301H85.1398ZM80.3098 36.3301C80.2398 36.3301 80.1898 36.3801 80.1898 36.4501V38.38C80.1898 38.45 80.2398 38.5001 80.3098 38.5001H83.1898C83.2598 38.5001 83.3098 38.44 83.3098 38.38V36.4501C83.3098 36.3901 83.2598 36.3301 83.1898 36.3301H80.3098ZM85.1398 32.8101C85.0698 32.8101 85.0198 32.8701 85.0198 32.9301V35.0901C85.0198 35.1601 85.0698 35.2101 85.1398 35.2101H87.9698C88.0398 35.2101 88.0898 35.1501 88.0898 35.0901V32.9301C88.0898 32.8601 88.0398 32.8101 87.9698 32.8101H85.1398ZM80.3098 32.8101C80.2398 32.8101 80.1898 32.8701 80.1898 32.9301V35.0901C80.1898 35.1601 80.2398 35.2101 80.3098 35.2101H83.1898C83.2598 35.2101 83.3098 35.1501 83.3098 35.0901V32.9301C83.3098 32.8601 83.2598 32.8101 83.1898 32.8101H80.3098ZM86.6298 30.8601V29.8101C86.6298 29.7401 86.5698 29.6901 86.5098 29.6901H81.7298C81.6598 29.6901 81.6098 29.7401 81.6098 29.8101V30.8601H79.9898V29.8101C79.9898 29.7401 79.9398 29.6901 79.8698 29.6901H75.3298V28.6001H79.8698C79.9398 28.6001 79.9898 28.5401 79.9898 28.4701V27.0801H81.6098V28.4701C81.6098 28.5401 81.6598 28.6001 81.7298 28.6001H86.5098C86.5798 28.6001 86.6298 28.5401 86.6298 28.4701V27.0801H88.2498V28.4701C88.2498 28.5401 88.2998 28.6001 88.3698 28.6001H92.9798V29.6901H88.3698C88.2998 29.6901 88.2498 29.7401 88.2498 29.8101V30.8601H86.6298Z" fill="white"/>
<path d="M109.52 44.7593C109.11 44.7593 108.74 44.7194 108.43 44.6194C108.09 44.5194 107.8 44.3593 107.55 44.1393C106.15 42.8493 104.66 40.5293 103.14 37.2593L96.6999 37.1893C96.6299 37.1893 96.5799 37.2393 96.5799 37.3093V42.8793C96.5799 43.2793 96.8999 43.5994 97.2999 43.5994H101.63L101.53 44.7693H96.8699C96.2899 44.7693 95.7799 44.5593 95.4399 44.1793C95.0999 43.7893 94.9199 43.2893 94.9199 42.6993V29.0894C94.9199 28.5194 95.1199 28.0494 95.5099 27.7194C95.8499 27.4294 96.3399 27.2793 96.8899 27.2793H109.56C110 27.2793 110.41 27.4394 110.71 27.7394C111.04 28.0294 111.23 28.4593 111.23 28.9093V31.3494C111.23 31.8794 110.98 32.2494 110.77 32.4794C110.45 32.7994 109.99 32.9694 109.5 32.9694H103.45C103.41 32.9694 103.37 32.9893 103.35 33.0193C103.33 33.0493 103.32 33.0893 103.33 33.1293C103.54 33.8493 104.13 35.4193 104.38 35.9393L111.95 36.0093V37.2094H105.13C105.09 37.2094 105.05 37.2293 105.03 37.2593C105 37.2993 105 37.3393 105.02 37.3793C105.72 38.9393 107.22 41.4394 108.61 42.9794C108.98 43.3894 109.46 43.5693 110.18 43.5693H112.5L112.41 44.7793H109.52V44.7593ZM96.7099 32.9493C96.6399 32.9493 96.5899 33.0093 96.5899 33.0693V35.8594C96.5899 35.9294 96.6499 35.9794 96.7099 35.9794H102.44C102.48 35.9794 102.51 35.9593 102.54 35.9193C102.56 35.8793 102.57 35.8393 102.55 35.7993C102.18 34.9393 101.79 33.9593 101.47 33.0193L96.7099 32.9493ZM97.2999 28.4594C96.8899 28.4594 96.5799 28.7493 96.5799 29.1293V31.6793C96.5799 31.7493 96.6399 31.7993 96.6999 31.7993H108.8C109.26 31.7993 109.54 31.4093 109.54 31.0393V29.1094C109.54 28.7494 109.18 28.4594 108.88 28.4594H97.2999V28.4594Z" fill="white"/>
<path d="M116.42 44.6591C115.94 44.6591 115.5 44.4391 115.16 44.0491C114.87 43.6891 114.7 43.2191 114.7 42.7491V28.9491C114.7 28.4591 114.95 27.9791 115.37 27.6791C115.7 27.4291 116.15 27.2891 116.61 27.2891H129.91C130.46 27.2891 130.94 27.4891 131.3 27.8591C131.64 28.2391 131.82 28.749 131.82 29.259V42.889C131.82 43.339 131.67 43.7591 131.4 44.0691C131.17 44.3391 130.75 44.6591 130.01 44.6591H116.42V44.6591ZM117.04 28.4991C116.71 28.4991 116.35 28.759 116.35 29.139V42.7991C116.35 43.2391 116.75 43.4791 117.04 43.4791H129.5C129.89 43.4791 130.15 43.2091 130.15 42.8191V29.1891C130.15 28.8591 129.84 28.509 129.54 28.509H117.04V28.4991ZM122.28 42.399C123.38 41.259 124.6 39.6591 125.6 38.0691C125.22 36.3091 124.67 33.939 124.47 32.519L117.25 32.4191V31.2891H124.09C124.13 31.2891 124.16 31.2791 124.18 31.2491C124.2 31.2191 124.21 31.179 124.2 31.149C124.11 30.699 123.96 29.8991 123.9 29.4091H125.42L125.38 29.7791C125.46 30.2491 125.56 30.8291 125.65 31.1991L126.77 31.2891C126.81 31.2891 126.85 31.2691 126.87 31.2391C126.89 31.2091 126.9 31.1591 126.88 31.1191C126.74 30.7591 126.53 30.0991 126.41 29.6691H127.84C127.85 30.0091 128.14 30.8191 128.3 31.2091L129.3 31.2791V32.4191H126.04C126 32.4191 125.97 32.4391 125.95 32.4691C125.93 32.4891 125.91 32.5291 125.92 32.5691C126.06 33.4291 126.4 35.0891 126.62 35.9091C126.63 35.9591 126.67 35.9991 126.72 35.9991C126.73 35.9991 126.73 35.9991 126.74 35.9991C126.78 35.9991 126.82 35.9791 126.84 35.9391C127.18 35.3891 127.67 34.2391 127.9 33.5491L129.39 33.6191C128.85 34.9191 127.96 36.8391 127.16 38.1891C127.29 38.8391 127.58 39.9291 127.73 40.4391C127.83 40.7491 128.17 40.9191 128.44 40.9191H129.29V42.0891H128.09C127.73 42.0891 127.42 42.0291 127.18 41.9191C126.91 41.7891 126.69 41.5891 126.56 41.3191C126.41 41.0191 126.26 40.4491 126.2 40.2191C126.19 40.1691 126.15 40.139 126.1 40.129C126.09 40.129 126.09 40.1191 126.08 40.1191C126.04 40.1191 126 40.1391 125.98 40.1691C125.6 40.7191 124.74 41.839 124.26 42.389H122.28V42.399ZM117.28 40.139C118.93 39.989 121.97 39.2091 123.61 38.7191V40.0391C122.05 40.4591 119.01 41.2491 117.28 41.5791V40.139ZM119.01 38.129C118.65 38.129 118.36 37.9991 118.11 37.7391C117.9 37.5091 117.77 37.1791 117.77 36.8391V34.8491C117.77 34.5491 117.91 34.249 118.16 34.019C118.41 33.809 118.76 33.6791 119.09 33.6791H122C122.44 33.6791 122.82 33.8091 123.09 34.0591C123.35 34.3191 123.48 34.6691 123.48 35.0791V36.639C123.48 37.099 123.39 37.4591 123.2 37.6891C122.98 37.9991 122.66 38.139 122.21 38.139H119.01V38.129ZM119.81 34.759C119.5 34.759 119.26 34.9891 119.26 35.2891V36.519C119.26 36.819 119.53 37.0491 119.77 37.0491H121.45C121.69 37.0491 121.92 36.8891 121.92 36.5391V35.269C121.92 34.979 121.7 34.759 121.41 34.759H119.81Z" fill="white"/>
<path d="M146.47 44.7609V43.5509H149.3C149.62 43.5509 149.87 43.301 149.87 42.981V31.5609C149.87 31.3009 149.62 31.0709 149.32 31.0709H149.01C148.12 36.9909 146.41 41.3209 143.68 44.4009L141.7 44.361C145.59 40.471 146.93 35.0809 147.36 31.2009C147.36 31.1709 147.35 31.131 147.33 31.111C147.31 31.081 147.27 31.0709 147.24 31.0709H146.07C145.06 35.1309 143.94 37.9909 142.31 40.4309L140.49 40.3809C142.41 37.8309 143.71 34.7409 144.35 31.2109C144.36 31.1809 144.35 31.141 144.32 31.111C144.3 31.081 144.26 31.0709 144.23 31.0709H143.37C142.88 32.0209 142.18 33.6209 141.62 34.4709L139.89 34.4209C141.25 32.3809 142.23 29.9309 142.89 26.9609L144.43 27.0509C144.26 27.8509 143.89 29.1409 143.72 29.7009C143.71 29.7309 143.72 29.7709 143.74 29.8109C143.76 29.8409 143.8 29.861 143.83 29.861H149.68C150.21 29.861 150.64 30.0109 150.95 30.3009C151.28 30.6009 151.47 31.0709 151.47 31.6509V43.2909C151.47 43.7509 151.29 44.1509 150.96 44.4209C150.68 44.6509 150.3 44.7609 149.87 44.7609H146.47ZM137.37 44.7609V38.6609C137.37 38.6209 137.35 38.5809 137.31 38.5609C137.29 38.5509 137.27 38.5409 137.25 38.5409C137.23 38.5409 137.21 38.5509 137.2 38.5609C136.51 38.8709 134.92 39.481 134.17 39.731V38.2809C134.82 38.1709 136.44 37.5909 137.3 37.2209L137.38 32.3909C137.38 32.3209 137.32 32.2709 137.26 32.2709H136.11C135.89 33.2309 135.7 34.5009 135.54 35.2809L134.13 35.1909C134.64 33.0809 134.76 30.9209 134.78 28.3409L136.14 28.4609C136.14 29.2609 136.12 30.1309 136.08 30.9309C136.08 30.9609 136.09 31.0009 136.11 31.0209C136.13 31.0409 136.17 31.0609 136.2 31.0609H137.27C137.33 31.0609 137.39 31.0009 137.39 30.9409V27.101H138.91V30.9409C138.91 31.0009 138.97 31.0609 139.03 31.0609H140.51V32.2709H139.03C138.97 32.2709 138.91 32.3309 138.91 32.3909V36.3109C138.91 36.3509 138.92 36.3809 138.95 36.4109C138.97 36.4309 139 36.4409 139.03 36.4409C139.04 36.4409 139.05 36.4409 139.06 36.4409C139.45 36.3409 140.17 36.0009 140.51 35.8409V37.2109C140.15 37.3209 139.45 37.651 138.98 37.861L138.91 44.7909H137.37V44.7609Z" fill="white"/>
<path d="M159.65 44.809V43.6289H164.46C164.53 43.6289 164.58 43.5789 164.58 43.5089V40.7789C164.58 40.7089 164.53 40.6589 164.46 40.6589H160.43V39.549H164.46C164.53 39.549 164.58 39.499 164.58 39.429V37.0289C164.58 36.9589 164.53 36.9089 164.46 36.9089H162.67C162.02 36.9089 161.49 36.749 161.15 36.449C160.79 36.139 160.6 35.679 160.6 35.109V29.079C160.6 28.569 160.8 28.139 161.15 27.839C161.49 27.539 161.94 27.3789 162.45 27.3789H168.45C168.97 27.3789 169.44 27.549 169.76 27.869C170.06 28.199 170.23 28.6889 170.23 29.2689V35.309C170.23 35.759 170.01 36.1989 169.62 36.5089C169.26 36.7889 168.83 36.939 168.36 36.939H166.39C166.32 36.939 166.27 36.989 166.27 37.059V39.459C166.27 39.529 166.33 39.579 166.39 39.579H170.48V40.689H166.39C166.32 40.689 166.27 40.739 166.27 40.809V43.5389C166.27 43.6089 166.33 43.6589 166.39 43.6589H171.24V44.839H159.65V44.809ZM166.38 32.709C166.31 32.709 166.26 32.759 166.26 32.829V35.619C166.26 35.689 166.32 35.739 166.38 35.739H167.98C168.43 35.739 168.64 35.529 168.64 35.069V32.829C168.64 32.759 168.58 32.709 168.52 32.709H166.38V32.709ZM162.3 32.709C162.23 32.709 162.18 32.759 162.18 32.829V35.2689C162.18 35.5089 162.51 35.739 162.71 35.739H164.46C164.53 35.739 164.58 35.689 164.58 35.619V32.829C164.58 32.759 164.53 32.709 164.46 32.709H162.3V32.709ZM166.38 28.459C166.31 28.459 166.26 28.509 166.26 28.579V31.449C166.26 31.519 166.32 31.569 166.38 31.569H168.52C168.59 31.569 168.64 31.519 168.64 31.449V29.1289C168.64 28.7589 168.38 28.459 168.05 28.459H166.38V28.459ZM162.75 28.459C162.52 28.459 162.18 28.6789 162.18 29.0289V31.449C162.18 31.519 162.23 31.569 162.3 31.569H164.46C164.53 31.569 164.58 31.519 164.58 31.449V28.579C164.58 28.509 164.53 28.459 164.46 28.459H162.75V28.459ZM153.59 42.2789C154.2 42.2089 155.17 41.8489 155.67 41.6289L155.74 35.5189C155.74 35.4589 155.69 35.3989 155.62 35.3989H153.89V34.2689H155.62C155.69 34.2689 155.74 34.2089 155.74 34.1489V29.239C155.74 29.169 155.69 29.109 155.62 29.109H153.48V27.969H159.4V29.109H157.42C157.35 29.109 157.3 29.169 157.3 29.239V34.1489C157.3 34.2189 157.35 34.2689 157.42 34.2689H158.98V35.3989H157.42C157.35 35.3989 157.3 35.4589 157.3 35.5189V40.739C157.3 40.779 157.32 40.819 157.36 40.839C157.38 40.849 157.4 40.859 157.43 40.859C157.45 40.859 157.47 40.849 157.48 40.849C158.06 40.589 158.85 40.219 159.46 39.929V41.359C157.6 42.119 154.94 43.2789 153.58 43.7789V42.2789H153.59Z" fill="white"/>
<path d="M180.41 44.7096C180.03 44.7096 179.66 44.5296 179.37 44.1996C179.18 43.9596 178.95 43.5796 178.95 43.0896V38.0996C178.95 37.7496 179.12 37.3796 179.42 37.0996C179.72 36.8296 180.11 36.6796 180.47 36.6796H187.8C188.34 36.6796 188.77 36.8596 189.09 37.2196C189.34 37.5396 189.49 37.9196 189.49 38.3096V43.2795C189.49 43.6495 189.32 44.0096 189.02 44.2996C188.71 44.5696 188.29 44.7196 187.85 44.7196H180.41V44.7096ZM181.23 37.9095C180.89 37.9095 180.64 38.1596 180.64 38.4796V42.8396C180.64 43.2096 180.89 43.4796 181.25 43.4796H187.29C187.61 43.4796 187.84 43.2295 187.84 42.8995V38.4496C187.84 38.1396 187.58 37.9196 187.22 37.9196H181.23V37.9095ZM173.42 44.7096C174.73 42.1696 175.64 39.6796 176.18 37.1096L177.82 37.1996C177.26 39.5996 176.55 42.1696 175.25 44.7096H173.42ZM175.4 36.0996C174.79 34.9696 173.99 33.5796 173.4 32.0896H175.28C175.84 33.4496 176.66 34.8196 177.63 36.0996H175.4ZM178.87 34.3496C178.42 34.3496 178.05 34.1896 177.89 33.9296C177.69 33.6196 177.76 33.1796 178.07 32.7296L181.95 27.0195L183.76 27.0596L180.06 32.5195C180.03 32.5495 179.82 32.7796 179.91 32.9796C179.99 33.1696 180.24 33.1696 180.33 33.1696H187.74C187.78 33.1696 187.82 33.1496 187.84 33.1096C187.86 33.0696 187.86 33.0296 187.85 32.9896L186.22 29.8596H187.92L190.42 34.3396H178.87V34.3496ZM175.36 31.1096C174.54 29.6096 173.87 28.2896 173.4 27.1196H175.32C175.88 28.5596 176.64 29.8796 177.54 31.1096H175.36Z" fill="white"/>
<path d="M201.09 44.7598V43.6498H202.53C202.83 43.6498 203.06 43.4099 203.06 43.0999V40.0798C203.06 40.0098 203.01 39.9598 202.94 39.9598H200.11C199.67 39.9598 199.28 39.8198 198.98 39.5598C198.67 39.2698 198.51 38.8598 198.51 38.3398V35.8599C198.51 35.7899 198.45 35.7399 198.39 35.7399H197.15C197.68 35.4099 198.41 34.9098 198.98 34.4598C199 34.4398 199.02 34.4098 199.02 34.3798C199.03 34.3498 199.02 34.3098 199 34.2898C198.55 33.7298 198.16 33.0698 197.88 32.5798H199.54C199.58 32.8098 199.79 33.0898 200.09 33.4198C200.11 33.4398 200.14 33.4598 200.18 33.4598C200.21 33.4598 200.24 33.4498 200.27 33.4198C200.56 33.1298 201.08 32.4898 201.45 32.0098C201.48 31.9698 201.49 31.9198 201.47 31.8798C201.45 31.8398 201.41 31.8098 201.36 31.8098H197.58V30.7399H202.18C202.39 30.4899 202.66 29.9698 202.87 29.5198C202.89 29.4798 202.89 29.4298 202.86 29.3998C202.84 29.3698 202.8 29.3398 202.76 29.3398H197.38C197.02 29.3398 196.74 29.6799 196.74 29.9799V35.7698C196.74 35.8198 196.76 35.8498 196.8 35.8798C196.82 35.8898 196.83 35.8898 196.85 35.8998C196.64 38.4898 196.47 41.8198 194.75 44.3998L193.01 44.3499C194.34 42.4999 195.05 40.1298 195.16 37.1398C195.16 37.0898 195.14 37.0498 195.1 37.0298C195.08 37.0198 195.06 37.0098 195.04 37.0098C195.02 37.0098 194.99 37.0198 194.97 37.0298C194.55 37.3098 193.42 37.9698 192.71 38.3798V36.9298C193.23 36.7698 194.57 36.0698 195.11 35.5598L195.15 29.9899C195.15 29.4599 195.34 29.0098 195.69 28.6998C195.98 28.4098 196.38 28.2598 196.84 28.2598H201.42C201.46 28.2598 201.5 28.2398 201.52 28.1998C201.54 28.1598 201.54 28.1298 201.53 28.0898L201.05 27.0898H202.85C202.9 27.4498 203.09 27.8498 203.3 28.1998L210.26 28.2598V29.3298H204.63C204.38 29.7198 204.11 30.2998 203.97 30.5698C203.95 30.6098 203.95 30.6498 203.97 30.6798C203.99 30.7198 204.03 30.7399 204.07 30.7399H210.05V31.8098H206.39C206.35 31.8098 206.3 31.8398 206.29 31.8798C206.27 31.9198 206.27 31.9698 206.3 32.0098C206.64 32.4698 207.17 33.1099 207.49 33.3699C207.8 33.2199 208.11 32.8798 208.36 32.5698L209.92 32.6099C209.52 33.1399 208.97 33.8098 208.53 34.1898C208.5 34.2098 208.49 34.2398 208.49 34.2798C208.49 34.3098 208.5 34.3399 208.52 34.3699C209 34.8499 209.68 35.3998 210.16 35.7798H209.36C209.29 35.7798 209.24 35.8298 209.24 35.8998V38.2798C209.24 38.7198 209.12 39.1398 208.91 39.4498C208.64 39.7898 208.27 39.9698 207.8 39.9698H204.78C204.72 39.9698 204.66 40.0198 204.66 40.0898V43.4598C204.66 43.7798 204.54 44.0999 204.32 44.3699C204.1 44.6299 203.77 44.7698 203.41 44.7698H201.09V44.7598ZM200.23 37.5999C200.16 37.5999 200.11 37.6598 200.11 37.7198V38.2598C200.11 38.6198 200.33 38.8699 200.66 38.8699H207.05C207.43 38.8699 207.64 38.6598 207.64 38.2798V37.7198C207.64 37.6598 207.58 37.5999 207.52 37.5999H200.23ZM200.66 35.3998C200.34 35.3998 200.11 35.6398 200.11 35.9498V36.4198C200.11 36.4898 200.16 36.5398 200.23 36.5398H207.52C207.59 36.5398 207.64 36.4798 207.64 36.4198V35.9698C207.64 35.6698 207.37 35.3998 207.07 35.3998H200.66ZM203.37 31.8098C203.33 31.8098 203.29 31.8299 203.27 31.8699C202.83 32.6099 202.3 33.3398 201.68 34.0498C201.65 34.0898 201.64 34.1398 201.66 34.1798C201.68 34.2198 201.73 34.2499 201.77 34.2499H206.12C206.17 34.2499 206.21 34.2198 206.23 34.1798C206.25 34.1398 206.25 34.0798 206.21 34.0498C205.65 33.4398 204.91 32.5499 204.43 31.8699L203.37 31.8098ZM207.91 44.3298C207.13 43.3198 206.35 42.1398 205.75 40.9198H207.65C208.24 42.0398 209.18 43.2298 210.29 44.3298H207.91ZM197.15 44.3298C198.45 43.3098 199.39 42.0699 200.21 40.8699L201.99 40.9198C201.07 42.3698 200.23 43.4598 199.34 44.3398H197.15V44.3298ZM193.19 33.8198C192.98 32.6598 192.76 31.5999 192.65 30.7399H193.99C194.03 31.7499 194.31 32.8198 194.59 33.8198H193.19Z" fill="white"/>
<path d="M223.91 44.7399V32.6898C223.91 32.6198 223.86 32.5698 223.79 32.5698H222.31C221.88 32.5698 221.62 32.9199 221.62 33.2499V41.9198H220.07V32.8998C220.07 32.4898 220.3 32.0398 220.64 31.7598C220.95 31.5198 221.29 31.3998 221.68 31.3998H223.79C223.86 31.3998 223.91 31.3398 223.91 31.2798V28.8798C223.91 28.8098 223.86 28.7598 223.79 28.7598H219.6V27.5598H229.71V28.7598H225.56C225.49 28.7598 225.44 28.8098 225.44 28.8798V31.2798C225.44 31.3498 225.49 31.3998 225.56 31.3998H227.74C228.19 31.3998 228.58 31.5698 228.84 31.8898C229.09 32.1798 229.22 32.5398 229.22 32.9198V40.6598C229.22 41.0998 229.02 41.3798 228.85 41.5398C228.61 41.7598 228.25 41.8998 227.88 41.8998H226.28V40.7299H227.06C227.44 40.7299 227.69 40.4798 227.69 40.0898V33.2499C227.69 32.8699 227.41 32.5698 227.06 32.5698H225.56C225.49 32.5698 225.44 32.6298 225.44 32.6898V44.7399H223.91ZM213.77 44.4098C213.39 44.4098 213 44.2398 212.71 43.9198C212.54 43.7198 212.33 43.3798 212.33 42.9298V30.7698C212.33 30.3398 212.47 29.9798 212.75 29.6798C213 29.3998 213.36 29.2399 213.69 29.2399H214.12C214.42 28.5899 214.57 27.9498 214.71 27.3398L214.79 27.0098L216.41 27.0898C216.26 27.8098 216.08 28.4798 215.89 29.0698C215.88 29.1098 215.89 29.1498 215.91 29.1798C215.93 29.2098 215.97 29.2299 216.01 29.2299H217.08C217.46 29.2299 217.78 29.3698 218.04 29.6298C218.29 29.8798 218.43 30.2198 218.43 30.5698V34.1998C218.43 34.5798 218.29 34.9098 218.02 35.1398C217.74 35.3998 217.34 35.5398 216.87 35.5398H214.01C213.94 35.5398 213.89 35.5998 213.89 35.6598V37.3798C213.89 37.4498 213.94 37.4999 214.01 37.4999H217.44C217.85 37.4999 218.22 37.6498 218.53 37.9398C218.79 38.2098 218.95 38.5898 218.95 39.0098V42.9899C218.95 43.3899 218.78 43.7598 218.5 44.0098C218.31 44.1898 217.97 44.3798 217.43 44.3798H213.77V44.4098ZM214.01 38.7698C213.94 38.7698 213.89 38.8198 213.89 38.8898V42.6498C213.89 42.9598 214.14 43.1998 214.46 43.1998H216.86C217.16 43.1998 217.39 42.9598 217.39 42.6498V39.3398C217.39 39.0198 217.17 38.7698 216.88 38.7698H214.01ZM214.5 30.4698C214.13 30.4698 213.89 30.7198 213.89 31.0798V34.2198C213.89 34.2898 213.94 34.3398 214.01 34.3398H216.31C216.63 34.3398 216.9 34.0498 216.9 33.6998V31.1298C216.9 30.7498 216.65 30.4598 216.33 30.4598H214.5V30.4698Z" fill="white"/>
<path d="M234.3 44.74C233.81 44.74 233.47 44.5299 233.35 44.1499C233.25 43.8499 233.31 43.5 233.5 43.2L239.15 33.36L241.14 33.4199L235.52 43.1599C235.49 43.1999 235.49 43.3999 235.51 43.4399C235.55 43.4899 235.61 43.5299 235.68 43.5299H245.42C245.46 43.5299 245.5 43.51 245.52 43.47C245.54 43.44 245.55 43.39 245.53 43.35L242.61 37.84H244.24L248.2 44.74H234.3V44.74ZM246.97 34.9299C245.24 32.7799 243.74 30.06 242.68 27.08H244.56C245.46 29.98 247.25 32.9099 249.26 34.9299H246.97ZM231.87 34.9299C233.9 32.6899 235.46 29.95 236.39 27L238.18 27.0699C237.18 30.0399 235.67 32.9599 234.12 34.9299H231.87V34.9299Z" fill="white"/>
<path d="M254.71 44.76C254.34 44.76 253.94 44.5901 253.64 44.3201C253.31 43.9801 253.12 43.57 253.12 43.14V39.91C253.12 39.51 253.35 39.1001 253.73 38.8201C254.02 38.6001 254.36 38.4701 254.71 38.4701H265.31C265.76 38.4701 266.19 38.6401 266.52 38.9501C266.83 39.2501 267 39.7001 267 40.2201V43.1001C267 43.5901 266.79 44.0401 266.41 44.3401C266.1 44.6201 265.64 44.76 265.13 44.76H254.71V44.76ZM254.94 42.1201C254.88 42.1201 254.82 42.1801 254.82 42.2401V43.02C254.82 43.38 255.14 43.65 255.42 43.65H264.76C265.12 43.65 265.39 43.3701 265.39 43.0001V42.2401C265.39 42.1701 265.34 42.1201 265.27 42.1201H254.94ZM255.43 39.5701C255.08 39.5701 254.82 39.83 254.82 40.17V40.9501C254.82 41.0201 254.88 41.0701 254.94 41.0701H265.27C265.34 41.0701 265.39 41.0201 265.39 40.9501V40.15C265.39 39.84 265.03 39.5701 264.74 39.5701H255.43ZM253.66 37.2101C253.26 37.2101 252.93 36.9901 252.73 36.8101C252.42 36.5201 252.24 36.1201 252.24 35.7501V33.6001C252.24 33.1901 252.4 32.7801 252.7 32.5001C253 32.1801 253.4 32.0001 253.82 32.0001H266.2C266.64 32.0001 267.06 32.15 267.35 32.4C267.71 32.7 267.9 33.1501 267.9 33.6801V35.63C267.9 35.99 267.74 36.37 267.46 36.67C267.14 37.02 266.72 37.2101 266.29 37.2101H253.66ZM264.77 33.8601C264.58 34.4001 264.15 35.3401 263.75 35.9301C263.72 35.9701 263.72 36.02 263.74 36.05C263.76 36.09 263.8 36.1201 263.85 36.1201H265.78C266.13 36.1201 266.4 35.8501 266.4 35.5001V33.6901C266.4 33.3701 266.1 33.0701 265.78 33.0701H261.02C260.95 33.0701 260.9 33.1301 260.9 33.1901V35.9801C260.9 36.0501 260.95 36.1001 261.02 36.1001H262.03C262.5 35.4401 263.01 34.4901 263.24 33.8401H264.77V33.8601ZM257.11 33.8601C257.24 34.5301 257.91 35.81 258.05 36.05L259.16 36.1201C259.23 36.1201 259.28 36.0601 259.28 36.0001V33.2101C259.28 33.1401 259.22 33.0901 259.16 33.0901H254.37C254.11 33.0901 253.82 33.33 253.82 33.66V35.51C253.82 35.91 254.08 36.13 254.33 36.13H256.32C256.36 36.13 256.4 36.1101 256.42 36.0701C256.44 36.0401 256.45 35.9901 256.43 35.9601C256.21 35.4901 255.76 34.5201 255.49 33.8701H257.11V33.8601ZM251.45 31.1201C253.31 29.9001 254.92 28.36 255.75 27.52C255.88 27.37 256.07 27.2601 256.32 27.1801C256.54 27.1101 256.73 27.0801 256.94 27.0801H263.61C263.8 27.0801 264.02 27.1301 264.27 27.2201C264.49 27.2901 264.7 27.42 264.84 27.55C265.99 28.77 267.39 30.0301 268.79 31.1001H266.36C265.54 30.3701 264.38 29.27 263.55 28.41C263.39 28.25 263.03 28.1101 262.79 28.1101H257.65C257.39 28.1101 256.96 28.2901 256.82 28.4601C256.08 29.2401 254.83 30.45 253.98 31.14L251.45 31.1201ZM256.43 29.63H263.91V30.6801H256.43V29.63Z" fill="white"/>
<path d="M46.3799 21.3008C46.3799 32.9008 36.9799 42.3108 25.3799 42.3108C13.7799 42.3108 4.37988 32.9008 4.37988 21.3008C4.37988 9.70078 13.7799 0.300781 25.3799 0.300781C36.9699 0.300781 46.3799 9.71078 46.3799 21.3008Z" fill="white"/>
<path d="M33.5201 7.83008H14.8701V34.77H25.1201V34.7301V33.14V26.6001V26.0901V19.17H24.4001V22.9H22.7201H21.9601V20.4601V15.6901H25.8901L27.0601 17.63L28.2501 15.7201H32.3701V22.9301H29.9701V19.1201H29.0201V28.1201C29.5901 28.2101 30.1801 28.27 30.7801 28.27C36.5501 28.27 41.2301 23.5901 41.2301 17.8201C41.2301 13.3401 38.1401 8.90008 33.5201 7.83008Z" fill="#606060"/>
<path d="M24.4002 22.8994H21.9502V15.6895H25.8802L27.0602 17.6294L28.2502 15.7295H32.3702V22.9294H29.9702V19.1294H29.0102V34.7295H25.1202V19.1594H24.4002V22.8994Z" fill="white"/>
<path d="M29.0898 13.0906C29.0898 14.2106 28.1798 15.1106 27.0698 15.1106C25.9498 15.1106 25.0498 14.2006 25.0498 13.0906C25.0498 11.9706 25.9498 11.0605 27.0698 11.0605C28.1898 11.0705 29.0898 11.9806 29.0898 13.0906Z" fill="white"/>
<path d="M7.81 56.8291L1.45 47.7391V56.8291H0V45.2891H1.47L7.91 54.4791V45.2891H9.33V56.8291H7.81Z" fill="white"/>
<path d="M27.91 56.8408L26.46 53.4108H21.29L19.87 56.8408H18.27L23.07 45.3008H24.57L29.55 56.8408H27.91ZM23.82 47.3907L21.89 51.9408L25.8 51.9508L23.82 47.3907Z" fill="white"/>
<path d="M18.2598 51.7908H12.3098V56.8408H10.8398V46.8208C10.8398 46.3808 10.9998 46.0309 11.2598 45.7509C11.5298 45.4609 11.9198 45.3008 12.2898 45.3008H18.2798V46.7708H12.6998C12.4698 46.7708 12.3098 46.9808 12.3098 47.1708V50.2908H18.2598V51.7908Z" fill="white"/>
<path d="M46.9302 46.7396V56.8396H45.4602V46.7396H41.4302V45.2695H50.8702V46.7396H46.9302Z" fill="white"/>
<path d="M39.8902 48.6206C39.8902 47.8406 39.6502 46.9406 39.1502 46.3406C38.5502 45.6306 37.6502 45.3105 36.7602 45.3105H32.4402C32.0702 45.3105 31.6802 45.4705 31.4102 45.7605C31.1502 46.0405 30.9902 46.3906 30.9902 46.8306V56.8506H32.4602V51.9305H36.4602C37.5702 51.9305 38.4302 51.6606 39.1702 50.8506C39.6802 50.2806 39.9102 49.4406 39.8902 48.6206ZM36.2402 50.4606H32.4602V47.1705C32.4602 46.9805 32.6202 46.7705 32.8502 46.7705H36.2602C36.7802 46.7705 37.3002 46.9006 37.7102 47.2106C38.1002 47.5506 38.3502 48.0506 38.3502 48.6006C38.3502 49.2906 37.9602 49.9006 37.3902 50.2106C37.3802 50.2206 37.3702 50.2206 37.3602 50.2306C37.3402 50.2406 37.3202 50.2505 37.3002 50.2605C37.0802 50.3605 36.8302 50.4106 36.5902 50.4406C36.5702 50.4406 36.5402 50.4406 36.5202 50.4406H36.5302C36.4302 50.4506 36.3302 50.4606 36.2402 50.4606Z" fill="white"/>
</svg>
